STARTFONT 2.1
FONT -gnu-BLOCK-Medium-R-Normal-Sans-32-320-75-75-c-80-iso8859-1
SIZE 32 75 75
FONTBOUNDINGBOX 32 32 0 -4
STARTPROPERTIES 25
COPYRIGHT ""
FONT_VERSION "0.9"
FONT_TYPE "Bitmap"
FOUNDRY "PoP"
FAMILY_NAME "BLOCK"
WEIGHT_NAME "Medium"
SLANT "R"
SETWIDTH_NAME "Normal"
ADD_STYLE_NAME "Sans Serif"
PIXEL_SIZE 32
POINT_SIZE 320
RESOLUTION_X 75
RESOLUTION_Y 75
SPACING "C"
AVERAGE_WIDTH 80
CHARSET_REGISTRY "ISO8859"
CHARSET_ENCODING "1"
UNDERLINE_POSITION -4
UNDERLINE_THICKNESS 1
CAP_HEIGHT 10
X_HEIGHT 32
FONT_ASCENT 14
FONT_DESCENT 4
DEFAULT_CHAR 20
_GBDFED_INFO "Edited with gbdfed 1.6."
ENDPROPERTIES
CHARS 95
STARTCHAR U+0020
ENCODING 32
SWIDTH 960 0
DWIDTH 32 0
BBX 32 32 0 -4
BITMAP
00000000
00000000
00000000
00000000
00000000
00000000
00000000
00000000
00000000
00000000
00000000
00000000
00000000
00000000
00000000
00000000
00000000
00000000
00000000
00000000
00000000
00000000
00000000
00000000
00000000
00000000
00000000
00000000
00000000
00000000
00000000
00000000
ENDCHAR
STARTCHAR U+0021
ENCODING 33
SWIDTH 960 0
DWIDTH 32 0
BBX 32 32 0 -4
BITMAP
00FF0000
00FF0000
00FF0000
00FF0000
00FF0000
00FF0000
00FF0000
00FF0000
00FF0000
00FF0000
00FF0000
00FF0000
00FF0000
00FF0000
00FF0000
00FF0000
00FF0000
00FE0000
00FC0000
00F80000
00F00000
00E00000
00C00000
00800000
00FF0000
00FF0000
00FF0000
00FF0000
00FF0000
00FF0000
00FF0000
00FF0000
ENDCHAR
STARTCHAR U+0022
ENCODING 34
SWIDTH 960 0
DWIDTH 32 0
BBX 32 32 0 -4
BITMAP
00010100
00030300
00070700
000F0F00
001F1F00
003F3F00
007F7F00
00FFFF00
00FFFF00
00FFFF00
00FFFF00
00FFFF00
00FFFF00
00FFFF00
00FFFF00
00FFFF00
00000000
00000000
00000000
00000000
00000000
00000000
00000000
00000000
00000000
00000000
00000000
00000000
00000000
00000000
00000000
00000000
ENDCHAR
STARTCHAR U+0023
ENCODING 35
SWIDTH 960 0
DWIDTH 32 0
BBX 32 32 0 -4
BITMAP
00800100
00C00300
00E00700
00F00F00
00F81F00
00FC3F00
00FE7F00
00FFFF00
FFFFFFFF
7FFE7FFE
3FFC3FFC
1FF81FF8
0FF00FF0
07E007E0
03C003C0
01800180
01800180
03C003C0
07E007E0
0FF00FF0
1FF81FF8
3FFC3FFC
7FFE7FFE
FFFFFFFF
00FFFF00
00FE7F00
00FC3F00
00F81F00
00F00F00
00E00700
00C00300
00800100
ENDCHAR
STARTCHAR U+0024
ENCODING 36
SWIDTH 960 0
DWIDTH 32 0
BBX 32 32 0 -4
BITMAP
00808000
00C0C000
00E0E000
00F0F000
00F8F800
00FCFC00
00FEFE00
00FFFF00
00FFFFFF
00FFFFFE
00FFFFFC
00FFFFF8
00FFFFF0
00FFFFE0
00FFFFC0
00FFFF80
01FFFF00
03FFFF00
07FFFF00
0FFFFF00
1FFFFF00
3FFFFF00
7FFFFF00
FFFFFF00
00FFFF00
00FEFE00
00FCFC00
00F8F800
00F0F000
00E0E000
00C0C000
00808000
ENDCHAR
STARTCHAR U+0025
ENCODING 37
SWIDTH 960 0
DWIDTH 32 0
BBX 32 32 0 -4
BITMAP
00000001
00000003
00000007
0000000F
0000001F
0000003F
0000007F
000000FF
00FF01FF
00FF03FE
00FF07FC
00FF0FF8
00FF1FF0
00FF3FE0
00FF7FC0
00FFFF80
0001FF00
0003FE00
0007FC00
000FF800
001FF000
003FE000
007FC000
00FF8000
01FFFF00
03FEFF00
07FCFF00
0FF8FF00
1FF0FF00
3FE0FF00
7FC0FF00
FF80FF00
ENDCHAR
STARTCHAR U+0026
ENCODING 38
SWIDTH 960 0
DWIDTH 32 0
BBX 32 32 0 -4
BITMAP
00018000
0003C000
0007E000
000FF000
001FF800
003FFC00
007FFE00
00FFFF00
00FFFF00
007FFE00
003FFC00
001FF800
000FF000
0007E000
0003C000
00018000
01FF80FF
03FFC0FE
07FFE0FC
0FFFF0F8
1FFFF8F0
3FFFFCE0
7FFFFEC0
FFFFFF80
FFFFFF80
7FFFFEC0
3FFFFCE0
1FFFF8F0
0FFFF0F8
07FFE0FC
03FFC0FE
01FF80FF
ENDCHAR
STARTCHAR U+0027
ENCODING 39
SWIDTH 960 0
DWIDTH 32 0
BBX 32 32 0 -4
BITMAP
0000FF00
0000FF00
0000FF00
0000FF00
0000FF00
0000FF00
0000FF00
0000FF00
0000FF00
0000FE00
0000FC00
0000F800
0000F000
0000E000
0000C000
00008000
00000000
00000000
00000000
00000000
00000000
00000000
00000000
00000000
00000000
00000000
00000000
00000000
00000000
00000000
00000000
00000000
ENDCHAR
STARTCHAR U+0028
ENCODING 40
SWIDTH 960 0
DWIDTH 32 0
BBX 32 32 0 -4
BITMAP
0001FF00
0003FE00
0007FC00
000FF800
001FF000
003FE000
007FC000
00FF8000
00FF0000
00FF0000
00FF0000
00FF0000
00FF0000
00FF0000
00FF0000
00FF0000
00FF0000
00FF0000
00FF0000
00FF0000
00FF0000
00FF0000
00FF0000
00FF0000
00FF8000
007FC000
003FE000
001FF000
000FF800
0007FC00
0003FE00
0001FF00
ENDCHAR
STARTCHAR U+0029
ENCODING 41
SWIDTH 960 0
DWIDTH 32 0
BBX 32 32 0 -4
BITMAP
FF800000
7FC00000
3FE00000
1FF00000
0FF80000
07FC0000
03FE0000
01FF0000
00FF0000
00FF0000
00FF0000
00FF0000
00FF0000
00FF0000
00FF0000
00FF0000
00FF0000
00FF0000
00FF0000
00FF0000
00FF0000
00FF0000
00FF0000
00FF0000
01FF0000
03FE0000
07FC0000
0FF80000
1FF00000
3FE00000
7FC00000
FF800000
ENDCHAR
STARTCHAR U+002A
ENCODING 42
SWIDTH 960 0
DWIDTH 32 0
BBX 32 32 0 -4
BITMAP
00000100
00000300
00000700
00000F00
00001F00
00003F00
00007F00
0000FF00
FFFFFF00
7FFFFF00
3FFFFF00
1FFFFF00
0FFFFF00
07FFFF00
03FFFF00
01FFFF00
00FFFF80
00FFFFC0
00FFFFE0
00FFFFF0
00FFFFF8
00FFFFFC
00FFFFFE
00FFFFFF
00FF0000
00FE0000
00FC0000
00F80000
00F00000
00E00000
00C00000
00800000
ENDCHAR
STARTCHAR U+002B
ENCODING 43
SWIDTH 960 0
DWIDTH 32 0
BBX 32 32 0 -4
BITMAP
00000000
00000000
00000000
00000000
00000000
00000000
00000000
00000000
0000FF00
0000FF00
0000FF00
0000FF00
0000FF00
0000FF00
0000FF00
0000FF00
00FFFFFF
00FFFFFF
00FFFFFF
00FFFFFF
00FFFFFF
00FFFFFF
00FFFFFF
00FFFFFF
0000FF00
0000FF00
0000FF00
0000FF00
0000FF00
0000FF00
0000FF00
0000FF00
ENDCHAR
STARTCHAR U+002C
ENCODING 44
SWIDTH 960 0
DWIDTH 32 0
BBX 32 32 0 -4
BITMAP
00000000
00000000
00000000
00000000
00000000
00000000
00000000
00000000
00000000
00000000
00000000
00000000
00000000
00000000
00000000
00000000
0000FF00
0000FF00
0000FF00
0000FF00
0000FF00
0000FF00
0000FF00
0000FF00
0000FF00
0000FE00
0000FC00
0000F800
0000F000
0000E000
0000C000
00008000
ENDCHAR
STARTCHAR U+002D
ENCODING 45
SWIDTH 960 0
DWIDTH 32 0
BBX 32 32 0 -4
BITMAP
00000000
00000000
00000000
00000000
00000000
00000000
00000000
00000000
00000000
00000000
00000000
00000000
00000000
00000000
00000000
00000000
FFFFFF80
7FFFFFC0
3FFFFFE0
1FFFFFF0
0FFFFFF8
07FFFFFC
03FFFFFE
01FFFFFF
00000000
00000000
00000000
00000000
00000000
00000000
00000000
00000000
ENDCHAR
STARTCHAR U+002E
ENCODING 46
SWIDTH 960 0
DWIDTH 32 0
BBX 32 32 0 -4
BITMAP
00000000
00000000
00000000
00000000
00000000
00000000
00000000
00000000
00000000
00000000
00000000
00000000
00000000
00000000
00000000
00000000
00000000
00000000
00000000
00000000
00000000
00000000
00000000
00000000
00FF0000
00FF0000
00FF0000
00FF0000
00FF0000
00FF0000
00FF0000
00FF0000
ENDCHAR
STARTCHAR U+002F
ENCODING 47
SWIDTH 960 0
DWIDTH 32 0
BBX 32 32 0 -4
BITMAP
00000001
00000003
00000007
0000000F
0000001F
0000003F
0000007F
000000FF
000001FF
000003FE
000007FC
00000FF8
00001FF0
00003FE0
00007FC0
0000FF80
0001FF00
0003FE00
0007FC00
000FF800
001FF000
003FE000
007FC000
00FF8000
01FF0000
03FE0000
07FC0000
0FF80000
1FF00000
3FE00000
7FC00000
FF800000
ENDCHAR
STARTCHAR U+0030
ENCODING 48
SWIDTH 960 0
DWIDTH 32 0
BBX 32 32 0 -4
BITMAP
01FF8000
03FFC000
07FFE000
0FFFF000
1FFFF800
3FFFFC00
7FFFFE00
FFFFFF00
FF00FF00
FF00FF00
FF00FF00
FF00FF00
FF00FF00
FF00FF00
FF00FF00
FF00FF00
FF00FF00
FF00FF00
FF00FF00
FF00FF00
FF00FF00
FF00FF00
FF00FF00
FF00FF00
FFFFFF00
7FFFFE00
3FFFFC00
1FFFF800
0FFFF000
07FFE000
03FFC000
01FF8000
ENDCHAR
STARTCHAR U+0031
ENCODING 49
SWIDTH 960 0
DWIDTH 32 0
BBX 32 32 0 -4
BITMAP
00010000
00030000
00070000
000F0000
001F0000
003F0000
007F0000
00FF0000
00FF0000
00FF0000
00FF0000
00FF0000
00FF0000
00FF0000
00FF0000
00FF0000
00FF0000
00FF0000
00FF0000
00FF0000
00FF0000
00FF0000
00FF0000
00FF0000
00FF0000
00FF0000
00FF0000
00FF0000
00FF0000
00FF0000
00FF0000
00FF0000
ENDCHAR
STARTCHAR U+0032
ENCODING 50
SWIDTH 960 0
DWIDTH 32 0
BBX 32 32 0 -4
BITMAP
01FFFF00
03FFFF00
07FFFF00
0FFFFF00
1FFFFF00
3FFFFF00
7FFFFF00
FFFFFF00
0001FF00
0003FE00
0007FC00
000FF800
001FF000
003FE000
007FC000
00FF8000
01FF0000
03FE0000
07FC0000
0FF80000
1FF00000
3FE00000
7FC00000
FF800000
FFFFFF00
FFFFFE00
FFFFFC00
FFFFF800
FFFFF000
FFFFE000
FFFFC000
FFFF8000
ENDCHAR
STARTCHAR U+0033
ENCODING 51
SWIDTH 960 0
DWIDTH 32 0
BBX 32 32 0 -4
BITMAP
01FF8000
03FFC000
07FFE000
0FFFF000
1FFFF800
3FFFFC00
7FFFFE00
FFFFFF00
0000FF00
0000FF00
0000FF00
0000FF00
0000FF00
0000FF00
0000FF00
0000FF00
00FFFF00
007FFF00
003FFF00
001FFF00
000FFF00
0007FF00
0003FF00
0001FF00
FFFFFF00
7FFFFE00
3FFFFC00
1FFFF800
0FFFF000
07FFE000
03FFC000
01FF8000
ENDCHAR
STARTCHAR U+0034
ENCODING 52
SWIDTH 960 0
DWIDTH 32 0
BBX 32 32 0 -4
BITMAP
01000100
03000300
07000700
0F000F00
1F001F00
3F003F00
7F007F00
FF00FF00
FF00FF00
FF00FF00
FF00FF00
FF00FF00
FF00FF00
FF00FF00
FF00FF00
FF00FF00
FFFFFF00
7FFFFF00
3FFFFF00
1FFFFF00
0FFFFF00
07FFFF00
03FFFF00
01FFFF00
0000FF00
0000FE00
0000FC00
0000F800
0000F000
0000E000
0000C000
00008000
ENDCHAR
STARTCHAR U+0035
ENCODING 53
SWIDTH 960 0
DWIDTH 32 0
BBX 32 32 0 -4
BITMAP
FFFFFF00
FFFFFE00
FFFFFC00
FFFFF800
FFFFF000
FFFFE000
FFFFC000
FFFF8000
FF800000
FFC00000
FFE00000
FFF00000
FFF80000
FFFC0000
FFFE0000
FFFF0000
00FF8000
007FC000
003FE000
001FF000
000FF800
0007FC00
0003FE00
0001FF00
FFFFFF00
7FFFFE00
3FFFFC00
1FFFF800
0FFFF000
07FFE000
03FFC000
01FF8000
ENDCHAR
STARTCHAR U+0036
ENCODING 54
SWIDTH 960 0
DWIDTH 32 0
BBX 32 32 0 -4
BITMAP
01FF8000
03FFC000
07FFE000
0FFFF000
1FFFF800
3FFFFC00
7FFFFE00
FFFFFF00
FF800000
FFC00000
FFE00000
FFF00000
FFF80000
FFFC0000
FFFE0000
FFFF0000
FFFF8000
FF7FC000
FF3FE000
FF1FF000
FF0FF800
FF07FC00
FF03FE00
FF01FF00
FFFFFF00
7FFFFE00
3FFFFC00
1FFFF800
0FFFF000
07FFE000
03FFC000
01FF8000
ENDCHAR
STARTCHAR U+0037
ENCODING 55
SWIDTH 960 0
DWIDTH 32 0
BBX 32 32 0 -4
BITMAP
FFFFFF00
FFFFFF00
FFFFFF00
FFFFFF00
FFFFFF00
FFFFFF00
FFFFFF00
FFFFFF00
0001FF00
0003FE00
0007FC00
000FF800
001FF000
003FE000
007FC000
00FF8000
01FF0000
03FE0000
07FC0000
0FF80000
1FF00000
3FE00000
7FC00000
FF800000
FF000000
FE000000
FC000000
F8000000
F0000000
E0000000
C0000000
80000000
ENDCHAR
STARTCHAR U+0038
ENCODING 56
SWIDTH 960 0
DWIDTH 32 0
BBX 32 32 0 -4
BITMAP
01FFFF00
03FFFF00
07FFFF00
0FFFFF00
1FFFFF00
3FFFFF00
7FFFFF00
FFFFFF00
FF80FF00
FFC0FE00
FFE0FC00
FFF0F800
FFF8F000
FFFCE000
FFFEC000
FFFF8000
01FF8000
037FC000
073FE000
0F1FF000
1F0FF800
3F07FC00
7F03FE00
FF01FF00
FFFFFF00
FFFFFE00
FFFFFC00
FFFFF800
FFFFF000
FFFFE000
FFFFC000
FFFF8000
ENDCHAR
STARTCHAR U+0039
ENCODING 57
SWIDTH 960 0
DWIDTH 32 0
BBX 32 32 0 -4
BITMAP
01FF8000
03FFC000
07FFE000
0FFFF000
1FFFF800
3FFFFC00
7FFFFE00
FFFFFF00
FF00FF00
FF00FF00
FF00FF00
FF00FF00
FF00FF00
FF00FF00
FF00FF00
FF00FF00
FFFFFF00
7FFEFF00
3FFCFF00
1FF8FF00
0FF0FF00
07E0FF00
03C0FF00
0180FF00
01FFFF00
03FFFE00
07FFFC00
0FFFF800
1FFFF000
3FFFE000
7FFFC000
FFFF8000
ENDCHAR
STARTCHAR U+003A
ENCODING 58
SWIDTH 960 0
DWIDTH 32 0
BBX 32 32 0 -4
BITMAP
0000FF00
0000FF00
0000FF00
0000FF00
0000FF00
0000FF00
0000FF00
0000FF00
00000000
00000000
00000000
00000000
00000000
00000000
00000000
00000000
0000FF00
0000FF00
0000FF00
0000FF00
0000FF00
0000FF00
0000FF00
0000FF00
00000000
00000000
00000000
00000000
00000000
00000000
00000000
00000000
ENDCHAR
STARTCHAR U+003B
ENCODING 59
SWIDTH 960 0
DWIDTH 32 0
BBX 32 32 0 -4
BITMAP
0000FF00
0000FF00
0000FF00
0000FF00
0000FF00
0000FF00
0000FF00
0000FF00
00000000
00000000
00000000
00000000
00000000
00000000
00000000
00000000
0000FF00
0000FF00
0000FF00
0000FF00
0000FF00
0000FF00
0000FF00
0000FF00
0000FF00
0000FE00
0000FC00
0000F800
0000F000
0000E000
0000C000
00008000
ENDCHAR
STARTCHAR U+003C
ENCODING 60
SWIDTH 960 0
DWIDTH 32 0
BBX 32 32 0 -4
BITMAP
000001FF
000003FE
000007FC
00000FF8
00001FF0
00003FE0
00007FC0
0000FF80
0001FF00
0003FE00
0007FC00
000FF800
001FF000
003FE000
007FC000
00FF8000
00FF8000
007FC000
003FE000
001FF000
000FF800
0007FC00
0003FE00
0001FF00
0000FF80
00007FC0
00003FE0
00001FF0
00000FF8
000007FC
000003FE
000001FF
ENDCHAR
STARTCHAR U+003D
ENCODING 61
SWIDTH 960 0
DWIDTH 32 0
BBX 32 32 0 -4
BITMAP
00000000
00000000
00000000
00000000
00000000
00000000
00000000
00000000
FFFFFF80
7FFFFFC0
3FFFFFE0
1FFFFFF0
0FFFFFF8
07FFFFFC
03FFFFFE
01FFFFFF
FFFFFF80
7FFFFFC0
3FFFFFE0
1FFFFFF0
0FFFFFF8
07FFFFFC
03FFFFFE
01FFFFFF
00000000
00000000
00000000
00000000
00000000
00000000
00000000
00000000
ENDCHAR
STARTCHAR U+003E
ENCODING 62
SWIDTH 960 0
DWIDTH 32 0
BBX 32 32 0 -4
BITMAP
00FF8000
007FC000
003FE000
001FF000
000FF800
0007FC00
0003FE00
0001FF00
0000FF80
00007FC0
00003FE0
00001FF0
00000FF8
000007FC
000003FE
000001FF
000001FF
000003FE
000007FC
00000FF8
00001FF0
00003FE0
00007FC0
0000FF80
0001FF00
0003FE00
0007FC00
000FF800
001FF000
003FE000
007FC000
00FF8000
ENDCHAR
STARTCHAR U+003F
ENCODING 63
SWIDTH 960 0
DWIDTH 32 0
BBX 32 32 0 -4
BITMAP
FFFFFF00
7FFFFF00
3FFFFF00
1FFFFF00
0FFFFF00
07FFFF00
03FFFF00
01FFFF00
0000FF00
0001FE00
0003FC00
0007F800
000FF000
001FE000
003FC000
007F8000
00FF0000
00FE0000
00FC0000
00F80000
00F00000
00E00000
00C00000
00800000
00FF0000
00FF0000
00FF0000
00FF0000
00FF0000
00FF0000
00FF0000
00FF0000
ENDCHAR
STARTCHAR U+0040
ENCODING 64
SWIDTH 960 0
DWIDTH 32 0
BBX 32 32 0 -4
BITMAP
01FFFF80
03FE7FC0
07FC3FE0
0FF81FF0
1FF00FF8
3FE007FC
7FC003FE
FF8001FF
FF00FFFF
FF00FFFE
FF00FFFC
FF00FFF8
FF00FFF0
FF00FFE0
FF00FFC0
FF00FF80
FF000000
FF000000
FF000000
FF000000
FF000000
FF000000
FF000000
FF000000
FF8001FF
7FC003FE
3FE007FC
1FF00FF8
0FF81FF0
07FC3FE0
03FE7FC0
01FFFF80
ENDCHAR
STARTCHAR U+0041
ENCODING 65
SWIDTH 960 0
DWIDTH 32 0
BBX 32 32 0 -4
BITMAP
01FFFF80
03FFFFC0
07FFFFE0
0FFFFFF0
1FFFFFF8
3FFFFFFC
7FFFFFFE
FFFFFFFF
FF0000FF
FF0000FF
FF0000FF
FF0000FF
FF0000FF
FF0000FF
FF0000FF
FF0000FF
FFFF80FF
FFFFC0FF
FFFFE0FF
FFFFF0FF
FFFFF8FF
FFFFFCFF
FFFFFEFF
FFFFFFFF
FF0000FF
7F0000FE
3F0000FC
1F0000F8
0F0000F0
070000E0
030000C0
01000080
ENDCHAR
STARTCHAR U+0042
ENCODING 66
SWIDTH 960 0
DWIDTH 32 0
BBX 32 32 0 -4
BITMAP
FFFFFF80
7FFFFFC0
3FFFFFE0
1FFFFFF0
0FFFFFF8
07FFFFFC
03FFFFFE
01FFFFFF
FF0001FF
FF0003FE
FF0007FC
FF000FF8
FF001FF0
FF003FE0
FF007FC0
FF00FF80
FF00FF80
FF007FC0
FF003FE0
FF001FF0
FF000FF8
FF0007FC
FF0003FE
FF0001FF
FFFFFFFF
7FFFFFFE
3FFFFFFC
1FFFFFF8
0FFFFFF0
07FFFFE0
03FFFFC0
01FFFF80
ENDCHAR
STARTCHAR U+0043
ENCODING 67
SWIDTH 960 0
DWIDTH 32 0
BBX 32 32 0 -4
BITMAP
01FFFFFF
03FFFFFE
07FFFFFC
0FFFFFF8
1FFFFFF0
3FFFFFE0
7FFFFFC0
FFFFFF80
FF000000
FF000000
FF000000
FF000000
FF000000
FF000000
FF000000
FF000000
FF000000
FF000000
FF000000
FF000000
FF000000
FF000000
FF000000
FF000000
FFFFFFFF
7FFFFFFE
3FFFFFFC
1FFFFFF8
0FFFFFF0
07FFFFE0
03FFFFC0
01FFFF80
ENDCHAR
STARTCHAR U+0044
ENCODING 68
SWIDTH 960 0
DWIDTH 32 0
BBX 32 32 0 -4
BITMAP
FFFFFF80
7FFFFFC0
3FFFFFE0
1FFFFFF0
0FFFFFF8
07FFFFFC
03FFFFFE
01FFFFFF
FF0000FF
FF0000FF
FF0000FF
FF0000FF
FF0000FF
FF0000FF
FF0000FF
FF0000FF
FFFF00FF
FFFE00FF
FFFC00FF
FFF800FF
FFF000FF
FFE000FF
FFC000FF
FF8000FF
FFFFFFFF
FEFFFFFE
FCFFFFFC
F8FFFFF8
F0FFFFF0
E0FFFFE0
C0FFFFC0
80FFFF80
ENDCHAR
STARTCHAR U+0045
ENCODING 69
SWIDTH 960 0
DWIDTH 32 0
BBX 32 32 0 -4
BITMAP
FFFFFFFF
7FFFFFFE
3FFFFFFC
1FFFFFF8
0FFFFFF0
07FFFFE0
03FFFFC0
01FFFF80
FF800000
FFC00000
FFE00000
FFF00000
FFF80000
FFFC0000
FFFE0000
FFFF0000
FF000000
FF000000
FF000000
FF000000
FF000000
FF000000
FF000000
FF000000
FFFFFFFF
7FFFFFFE
3FFFFFFC
1FFFFFF8
0FFFFFF0
07FFFFE0
03FFFFC0
01FFFF80
ENDCHAR
STARTCHAR U+0046
ENCODING 70
SWIDTH 960 0
DWIDTH 32 0
BBX 32 32 0 -4
BITMAP
FFFFFFFF
7FFFFFFE
3FFFFFFC
1FFFFFF8
0FFFFFF0
07FFFFE0
03FFFFC0
01FFFF80
FF800000
FFC00000
FFE00000
FFF00000
FFF80000
FFFC0000
FFFE0000
FFFF0000
FF000000
FF000000
FF000000
FF000000
FF000000
FF000000
FF000000
FF000000
FF000000
7F000000
3F000000
1F000000
0F000000
07000000
03000000
01000000
ENDCHAR
STARTCHAR U+0047
ENCODING 71
SWIDTH 960 0
DWIDTH 32 0
BBX 32 32 0 -4
BITMAP
01FFFF00
03FFFF00
07FFFF00
0FFFFF00
1FFFFF00
3FFFFF00
7FFFFF00
FFFFFF00
FF0001FF
FF0003FF
FF0007FF
FF000FFF
FF001FFF
FF003FFF
FF007FFF
FF00FFFF
FF0000FF
FF0000FF
FF0000FF
FF0000FF
FF0000FF
FF0000FF
FF0000FF
FF0000FF
FFFFFFFF
7FFFFF7F
3FFFFF3F
1FFFFF1F
0FFFFF0F
07FFFF07
03FFFF03
01FFFF01
ENDCHAR
STARTCHAR U+0048
ENCODING 72
SWIDTH 960 0
DWIDTH 32 0
BBX 32 32 0 -4
BITMAP
01000080
030000C0
070000E0
0F0000F0
1F0000F8
3F0000FC
7F0000FE
FF0000FF
FF0000FF
FF0000FF
FF0000FF
FF0000FF
FF0000FF
FF0000FF
FF0000FF
FF0000FF
FFFFFFFF
FFFFFFFF
FFFFFFFF
FFFFFFFF
FFFFFFFF
FFFFFFFF
FFFFFFFF
FFFFFFFF
FF0000FF
7F0000FE
3F0000FC
1F0000F8
0F0000F0
070000E0
030000C0
01000080
ENDCHAR
STARTCHAR U+0049
ENCODING 73
SWIDTH 960 0
DWIDTH 32 0
BBX 32 32 0 -4
BITMAP
0000FF00
00007F00
00003F00
00001F00
00000F00
00000700
00000300
00000100
0000FF00
0000FF00
0000FF00
0000FF00
0000FF00
0000FF00
0000FF00
0000FF00
0000FF00
0000FF00
0000FF00
0000FF00
0000FF00
0000FF00
0000FF00
0000FF00
0000FF00
0000FE00
0000FC00
0000F800
0000F000
0000E000
0000C000
00008000
ENDCHAR
STARTCHAR U+004A
ENCODING 74
SWIDTH 960 0
DWIDTH 32 0
BBX 32 32 0 -4
BITMAP
FFFFFFFF
7FFFFFFF
3FFFFFFF
1FFFFFFF
0FFFFFFF
07FFFFFF
03FFFFFF
01FFFFFF
000000FF
000000FF
000000FF
000000FF
000000FF
000000FF
000000FF
000000FF
010000FF
030000FF
070000FF
0F0000FF
1F0000FF
3F0000FF
7F0000FF
FF0000FF
FFFFFFFF
7FFFFFFE
3FFFFFFC
1FFFFFF8
0FFFFFF0
07FFFFE0
03FFFFC0
01FFFF80
ENDCHAR
STARTCHAR U+004B
ENCODING 75
SWIDTH 960 0
DWIDTH 32 0
BBX 32 32 0 -4
BITMAP
FF0001FF
FF0003FE
FF0007FC
FF000FF8
FF001FF0
FF003FE0
FF007FC0
FF00FF80
FFFFFF00
FFFFFF00
FFFFFF00
FFFFFF00
FFFFFF00
FFFFFF00
FFFFFF00
FFFFFF00
FF00FF80
FF007FC0
FF003FE0
FF001FF0
FF000FF8
FF0007FC
FF0003FE
FF0001FF
FF0000FF
7F0000FE
3F0000FC
1F0000F8
0F0000F0
070000E0
030000C0
01000080
ENDCHAR
STARTCHAR U+004C
ENCODING 76
SWIDTH 960 0
DWIDTH 32 0
BBX 32 32 0 -4
BITMAP
FF000000
FF000000
FF000000
FF000000
FF000000
FF000000
FF000000
FF000000
FF000000
FF000000
FF000000
FF000000
FF000000
FF000000
FF000000
FF000000
FF000001
FF000003
FF000007
FF00000F
FF00001F
FF00003F
FF00007F
FF0000FF
FFFFFFFF
FEFFFFFE
FCFFFFFC
F8FFFFF8
F0FFFFF0
E0FFFFE0
C0FFFFC0
80FFFF80
ENDCHAR
STARTCHAR U+004D
ENCODING 77
SWIDTH 960 0
DWIDTH 32 0
BBX 32 32 0 -4
BITMAP
FFFFFF80
7FFFFFC0
3FFFFFE0
1FFFFFF0
0FFFFFF8
07FFFFFC
03FFFFFE
01FFFFFF
FFFFFFFF
FFFEFEFF
FFFCFCFF
FFF8F8FF
FFF0F0FF
FFE0E0FF
FFC0C0FF
FF8080FF
FF0000FF
FF0000FF
FF0000FF
FF0000FF
FF0000FF
FF0000FF
FF0000FF
FF0000FF
FF0000FF
FE0000FE
FC0000FC
F80000F8
F00000F0
E00000E0
C00000C0
80000080
ENDCHAR
STARTCHAR U+004E
ENCODING 78
SWIDTH 960 0
DWIDTH 32 0
BBX 32 32 0 -4
BITMAP
FFFFFF80
7FFFFFC0
3FFFFFE0
1FFFFFF0
0FFFFFF8
07FFFFFC
03FFFFFE
01FFFFFF
FF0000FF
FF0000FF
FF0000FF
FF0000FF
FF0000FF
FF0000FF
FF0000FF
FF0000FF
FF0000FF
FF0000FF
FF0000FF
FF0000FF
FF0000FF
FF0000FF
FF0000FF
FF0000FF
FF0000FF
FE0000FE
FC0000FC
F80000F8
F00000F0
E00000E0
C00000C0
80000080
ENDCHAR
STARTCHAR U+004F
ENCODING 79
SWIDTH 960 0
DWIDTH 32 0
BBX 32 32 0 -4
BITMAP
FFFFFF80
7FFFFFC0
3FFFFFE0
1FFFFFF0
0FFFFFF8
07FFFFFC
03FFFFFE
01FFFFFF
FF0000FF
FF0000FF
FF0000FF
FF0000FF
FF0000FF
FF0000FF
FF0000FF
FF0000FF
FF0000FF
FF0000FF
FF0000FF
FF0000FF
FF0000FF
FF0000FF
FF0000FF
FF0000FF
FFFFFFFF
7FFFFFFE
3FFFFFFC
1FFFFFF8
0FFFFFF0
07FFFFE0
03FFFFC0
01FFFF80
ENDCHAR
STARTCHAR U+0050
ENCODING 80
SWIDTH 960 0
DWIDTH 32 0
BBX 32 32 0 -4
BITMAP
FFFFFF80
7FFFFFC0
3FFFFFE0
1FFFFFF0
0FFFFFF8
07FFFFFC
03FFFFFE
01FFFFFF
FF0000FF
FF0000FE
FF0000FC
FF0000F8
FF0000F0
FF0000E0
FF0000C0
FF000080
FFFFFF00
FF7FFE00
FF3FFC00
FF1FF800
FF0FF000
FF07E000
FF03C000
FF018000
FF000000
7F000000
3F000000
1F000000
0F000000
07000000
03000000
01000000
ENDCHAR
STARTCHAR U+0051
ENCODING 81
SWIDTH 960 0
DWIDTH 32 0
BBX 32 32 0 -4
BITMAP
01FFFF80
03FFFFC0
07FFFFE0
0FFFFFF0
1FFFFFF8
3FFFFFFC
7FFFFFFE
FFFFFFFF
FF0000FF
FF0000FF
FF0000FF
FF0000FF
FF0000FF
FF0000FF
FF0000FF
FF0000FF
FF0080FF
FF00C0FF
FF00E0FF
FF00F0FF
FF00F8FF
FF00FCFF
FF00FEFF
FF00FFFF
FFFFFFFF
7FFFFFFE
3FFFFFFC
1FFFFFF8
0FFFFFF0
07FFFFE0
03FFFFC0
01FFFF80
ENDCHAR
STARTCHAR U+0052
ENCODING 82
SWIDTH 960 0
DWIDTH 32 0
BBX 32 32 0 -4
BITMAP
FFFFFF80
7FFFFFC0
3FFFFFE0
1FFFFFF0
0FFFFFF8
07FFFFFC
03FFFFFE
01FFFFFF
FF0000FF
FF0000FE
FF0000FC
FF0000F8
FF0000F0
FF0000E0
FF0000C0
FF000080
FF01FF80
FF03FFC0
FF07FFE0
FF0FFFF0
FF1FFFF8
FF3FFFFC
FF7FFFFE
FFFFFFFF
FF0000FF
7F0000FF
3F0000FF
1F0000FF
0F0000FF
070000FF
030000FF
010000FF
ENDCHAR
STARTCHAR U+0053
ENCODING 83
SWIDTH 960 0
DWIDTH 32 0
BBX 32 32 0 -4
BITMAP
01FFFFFF
03FFFFFE
07FFFFFC
0FFFFFF8
1FFFFFF0
3FFFFFE0
7FFFFFC0
FFFFFF80
FF800000
7FC00000
3FE00000
1FF00000
0FF80000
07FC0000
03FE0000
01FF0000
0000FF80
00007FC0
00003FE0
00001FF0
00000FF8
000007FC
000003FE
000001FF
FFFFFFFF
7FFFFFFE
3FFFFFFC
1FFFFFF8
0FFFFFF0
07FFFFE0
03FFFFC0
01FFFF80
ENDCHAR
STARTCHAR U+0054
ENCODING 84
SWIDTH 960 0
DWIDTH 32 0
BBX 32 32 0 -4
BITMAP
01FFFFFF
03FFFFFF
07FFFFFF
0FFFFFFF
1FFFFFFF
3FFFFFFF
7FFFFFFF
FFFFFFFF
0000FF00
0000FF00
0000FF00
0000FF00
0000FF00
0000FF00
0000FF00
0000FF00
0000FF00
0000FF00
0000FF00
0000FF00
0000FF00
0000FF00
0000FF00
0000FF00
0000FF00
0000FF00
0000FF00
0000FF00
0000FF00
0000FF00
0000FF00
0000FF00
ENDCHAR
STARTCHAR U+0055
ENCODING 85
SWIDTH 960 0
DWIDTH 32 0
BBX 32 32 0 -4
BITMAP
FF0000FF
FF0000FF
FF0000FF
FF0000FF
FF0000FF
FF0000FF
FF0000FF
FF0000FF
FF0000FF
FF0000FF
FF0000FF
FF0000FF
FF0000FF
FF0000FF
FF0000FF
FF0000FF
FF0000FF
FF0000FF
FF0000FF
FF0000FF
FF0000FF
FF0000FF
FF0000FF
FF0000FF
FFFFFFFF
7FFFFFFE
3FFFFFFC
1FFFFFF8
0FFFFFF0
07FFFFE0
03FFFFC0
01FFFF80
ENDCHAR
STARTCHAR U+0056
ENCODING 86
SWIDTH 960 0
DWIDTH 32 0
BBX 32 32 0 -4
BITMAP
FF0000FF
FF0000FF
FF0000FF
FF0000FF
FF0000FF
FF0000FF
FF0000FF
FF0000FF
FF0000FF
FF0000FF
FF0000FF
FF0000FF
FF0000FF
FF0000FF
FF0000FF
FF0000FF
FF8001FF
7FC003FE
3FE007FC
1FF00FF8
0FF81FF0
07FC3FE0
03FE7FC0
01FFFF80
00FFFF00
007FFE00
003FFC00
001FF800
000FF000
0007E000
0003C000
00018000
ENDCHAR
STARTCHAR U+0057
ENCODING 87
SWIDTH 960 0
DWIDTH 32 0
BBX 32 32 0 -4
BITMAP
01000001
03000003
07000007
0F00000F
1F00001F
3F00003F
7F00007F
FF0000FF
FF0000FF
FF0000FF
FF0000FF
FF0000FF
FF0000FF
FF0000FF
FF0000FF
FF0000FF
FF0101FF
FF0303FF
FF0707FF
FF0F0FFF
FF1F1FFF
FF3F3FFF
FF7F7FFF
FFFFFFFF
FFFFFFFF
7FFFFFFE
3FFFFFFC
1FFFFFF8
0FFFFFF0
07FFFFE0
03FFFFC0
01FFFF80
ENDCHAR
STARTCHAR U+0058
ENCODING 88
SWIDTH 960 0
DWIDTH 32 0
BBX 32 32 0 -4
BITMAP
FF8001FF
7FC003FE
3FE007FC
1FF00FF8
0FF81FF0
07FC3FE0
03FE7FC0
01FFFF80
00FFFF00
007FFE00
003FFC00
001FF800
000FF000
0007E000
0003C000
00018000
00018000
0003C000
0007E000
000FF000
001FF800
003FFC00
007FFE00
00FFFF00
01FFFF80
03FE7FC0
07FC3FE0
0FF81FF0
1FF00FF8
3FE007FC
7FC003FE
FF8001FF
ENDCHAR
STARTCHAR U+0059
ENCODING 89
SWIDTH 960 0
DWIDTH 32 0
BBX 32 32 0 -4
BITMAP
FF0000FF
FF0000FF
FF0000FF
FF0000FF
FF0000FF
FF0000FF
FF0000FF
FF0000FF
FF8001FF
7FC003FE
3FE007FC
1FF00FF8
0FF81FF0
07FC3FE0
03FE7FC0
01FFFF80
00FFFF00
00FFFE00
00FFFC00
00FFF800
00FFF000
00FFE000
00FFC000
00FF8000
01FF0000
03FE0000
07FC0000
0FF80000
1FF00000
3FE00000
7FC00000
FF800000
ENDCHAR
STARTCHAR U+005A
ENCODING 90
SWIDTH 960 0
DWIDTH 32 0
BBX 32 32 0 -4
BITMAP
FFFFFFFF
7FFFFFFE
3FFFFFFC
1FFFFFF8
0FFFFFF0
07FFFFE0
03FFFFC0
01FFFF80
0001FF00
0003FE00
0007FC00
000FF800
001FF000
003FE000
007FC000
00FF8000
01FF0000
03FE0000
07FC0000
0FF80000
1FF00000
3FE00000
7FC00000
FF800000
FFFFFF80
FFFFFFC0
FFFFFFE0
FFFFFFF0
FFFFFFF8
FFFFFFFC
FFFFFFFE
FFFFFFFF
ENDCHAR
STARTCHAR U+005B
ENCODING 91
SWIDTH 960 0
DWIDTH 32 0
BBX 32 32 0 -4
BITMAP
00FFFF00
00FFFE00
00FFFC00
00FFF800
00FFF000
00FFE000
00FFC000
00FF8000
00FF0000
00FF0000
00FF0000
00FF0000
00FF0000
00FF0000
00FF0000
00FF0000
00FF0000
00FF0000
00FF0000
00FF0000
00FF0000
00FF0000
00FF0000
00FF0000
00FF8000
00FFC000
00FFE000
00FFF000
00FFF800
00FFFC00
00FFFE00
00FFFF00
ENDCHAR
STARTCHAR U+005C
ENCODING 92
SWIDTH 960 0
DWIDTH 32 0
BBX 32 32 0 -4
BITMAP
80000000
C0000000
E0000000
F0000000
F8000000
FC000000
FE000000
FF000000
FF800000
7FC00000
3FE00000
1FF00000
0FF80000
07FC0000
03FE0000
01FF0000
00FF8000
007FC000
003FE000
001FF000
000FF800
0007FC00
0003FE00
0001FF00
0000FF80
00007FC0
00003FE0
00001FF0
00000FF8
000007FC
000003FE
000001FF
ENDCHAR
STARTCHAR U+005D
ENCODING 93
SWIDTH 960 0
DWIDTH 32 0
BBX 32 32 0 -4
BITMAP
00FFFF00
007FFF00
003FFF00
001FFF00
000FFF00
0007FF00
0003FF00
0001FF00
0000FF00
0000FF00
0000FF00
0000FF00
0000FF00
0000FF00
0000FF00
0000FF00
0000FF00
0000FF00
0000FF00
0000FF00
0000FF00
0000FF00
0000FF00
0000FF00
0001FF00
0003FF00
0007FF00
000FFF00
001FFF00
003FFF00
007FFF00
00FFFF00
ENDCHAR
STARTCHAR U+005E
ENCODING 94
SWIDTH 960 0
DWIDTH 32 0
BBX 32 32 0 -4
BITMAP
00018000
0003C000
0007E000
000FF000
001FF800
003FFC00
007FFE00
00FFFF00
00000000
00000000
00000000
00000000
00000000
00000000
00000000
00000000
00000000
00000000
00000000
00000000
00000000
00000000
00000000
00000000
00000000
00000000
00000000
00000000
00000000
00000000
00000000
00000000
ENDCHAR
STARTCHAR U+005F
ENCODING 95
SWIDTH 960 0
DWIDTH 32 0
BBX 32 32 0 -4
BITMAP
00000000
00000000
00000000
00000000
00000000
00000000
00000000
00000000
00000000
00000000
00000000
00000000
00000000
00000000
00000000
00000000
00000000
00000000
00000000
00000000
00000000
00000000
00000000
00000000
FFFFFFFF
FFFFFFFF
FFFFFFFF
FFFFFFFF
FFFFFFFF
FFFFFFFF
FFFFFFFF
FFFFFFFF
ENDCHAR
STARTCHAR U+0060
ENCODING 96
SWIDTH 960 0
DWIDTH 32 0
BBX 32 32 0 -4
BITMAP
00FF8000
007FC000
003FE000
001FF000
000FF800
0007FC00
0003FE00
0001FF00
00000000
00000000
00000000
00000000
00000000
00000000
00000000
00000000
00000000
00000000
00000000
00000000
00000000
00000000
00000000
00000000
00000000
00000000
00000000
00000000
00000000
00000000
00000000
00000000
ENDCHAR
STARTCHAR U+0061
ENCODING 97
SWIDTH 960 0
DWIDTH 32 0
BBX 32 32 0 -4
BITMAP
00000000
00000000
00000000
00000000
00000000
00000000
00000000
00000000
007FFE00
00FFFF00
01FFFF80
03FFFFC0
07FFFFE0
0FFFFFF0
0FC003F0
0FC003F0
0FC003F0
0FC003F0
0FC003F0
0FC003F0
0FFF83F0
0FFFC3F0
0FFFE3F0
0FFFF3F0
0FFFFBF0
0FFFFFF0
0FC003F0
07C003E0
03C003C0
01C00380
00C00300
00400200
ENDCHAR
STARTCHAR U+0062
ENCODING 98
SWIDTH 960 0
DWIDTH 32 0
BBX 32 32 0 -4
BITMAP
00000000
00000000
00000000
00000000
00000000
00000000
00000000
00000000
0FFFFE00
07FFFF00
03FFFF80
01FFFFC0
00FFFFE0
007FFFF0
0FC003F0
0FC007E0
0FC00FC0
0FC01F80
0FC03F00
0FC07E00
0FC07E00
0FC03F00
0FC01F80
0FC00FC0
0FC007E0
0FC003F0
0FFFFFF0
07FFFFE0
03FFFFC0
01FFFF80
00FFFF00
007FFE00
ENDCHAR
STARTCHAR U+0063
ENCODING 99
SWIDTH 960 0
DWIDTH 32 0
BBX 32 32 0 -4
BITMAP
00000000
00000000
00000000
00000000
00000000
00000000
00000000
00000000
007FFFF0
00FFFFE0
01FFFFC0
03FFFF80
07FFFF00
0FFFFE00
0FC00000
0FC00000
0FC00000
0FC00000
0FC00000
0FC00000
0FC00000
0FC00000
0FC00000
0FC00000
0FC00000
0FC00000
0FFFFFF0
07FFFFE0
03FFFFC0
01FFFF80
00FFFF00
007FFE00
ENDCHAR
STARTCHAR U+0064
ENCODING 100
SWIDTH 960 0
DWIDTH 32 0
BBX 32 32 0 -4
BITMAP
00000000
00000000
00000000
00000000
00000000
00000000
00000000
00000000
0FFFFE00
07FFFF00
03FFFF80
01FFFFC0
00FFFFE0
007FFFF0
0FC001F0
0FC001F0
0FC001F0
0FC001F0
0FC001F0
0FC001F0
0FFF01F0
0FFE01F0
0FFC01F0
0FF801F0
0FF001F0
0FE001F0
0FFFFFF0
0FBFFFE0
0F3FFFC0
0E3FFF80
0C3FFF00
083FFE00
ENDCHAR
STARTCHAR U+0065
ENCODING 101
SWIDTH 960 0
DWIDTH 32 0
BBX 32 32 0 -4
BITMAP
00000000
00000000
00000000
00000000
00000000
00000000
00000000
00000000
0FFFFFF0
07FFFFE0
03FFFFC0
01FFFF80
00FFFF00
007FFE00
0FE00000
0FF00000
0FF80000
0FFC0000
0FFE0000
0FFF0000
0FC00000
0FC00000
0FC00000
0FC00000
0FC00000
0FC00000
0FFFFFF0
07FFFFE0
03FFFFC0
01FFFF80
00FFFF00
007FFE00
ENDCHAR
STARTCHAR U+0066
ENCODING 102
SWIDTH 960 0
DWIDTH 32 0
BBX 32 32 0 -4
BITMAP
00000000
00000000
00000000
00000000
00000000
00000000
00000000
00000000
0FFFFFF0
07FFFFE0
03FFFFC0
01FFFF80
00FFFF00
007FFE00
0FE00000
0FF00000
0FF80000
0FFC0000
0FFE0000
0FFF0000
0FC00000
0FC00000
0FC00000
0FC00000
0FC00000
0FC00000
0FC00000
07C00000
03C00000
01C00000
00C00000
00400000
ENDCHAR
STARTCHAR U+0067
ENCODING 103
SWIDTH 960 0
DWIDTH 32 0
BBX 32 32 0 -4
BITMAP
00000000
00000000
00000000
00000000
00000000
00000000
00000000
00000000
007FFC00
00FFFC00
01FFFC00
03FFFC00
07FFFC00
0FFFFC00
0FC007F0
0FC00FF0
0FC01FF0
0FC03FF0
0FC07FF0
0FC0FFF0
0FC003F0
0FC003F0
0FC003F0
0FC003F0
0FC003F0
0FC003F0
0FFFFFF0
07FFFDF0
03FFFCF0
01FFFC70
00FFFC30
007FFC10
ENDCHAR
STARTCHAR U+0068
ENCODING 104
SWIDTH 960 0
DWIDTH 32 0
BBX 32 32 0 -4
BITMAP
00000000
00000000
00000000
00000000
00000000
00000000
00000000
00000000
00400200
00C00300
01C00380
03C003C0
07C003E0
0FC003F0
0FC003F0
0FC003F0
0FC003F0
0FC003F0
0FC003F0
0FC003F0
0FFFFFF0
0FFFFFF0
0FFFFFF0
0FFFFFF0
0FFFFFF0
0FFFFFF0
0FC003F0
07C003E0
03C003C0
01C00380
00C00300
00400200
ENDCHAR
STARTCHAR U+0069
ENCODING 105
SWIDTH 960 0
DWIDTH 32 0
BBX 32 32 0 -4
BITMAP
00000000
00000000
00000000
00000000
00000000
00000000
00000000
00000000
0000FC00
00007C00
00003C00
00001C00
00000C00
00000400
0000FC00
0000FC00
0000FC00
0000FC00
0000FC00
0000FC00
0000FC00
0000FC00
0000FC00
0000FC00
0000FC00
0000FC00
0000FC00
0000F800
0000F000
0000E000
0000C000
00008000
ENDCHAR
STARTCHAR U+006A
ENCODING 106
SWIDTH 960 0
DWIDTH 32 0
BBX 32 32 0 -4
BITMAP
00000000
00000000
00000000
00000000
00000000
00000000
00000000
00000000
0FFFFFF0
07FFFFF0
03FFFFF0
01FFFFF0
00FFFFF0
007FFFF0
000003F0
000003F0
000003F0
000003F0
000003F0
000003F0
004003F0
00C003F0
01C003F0
03C003F0
07C003F0
0FC003F0
0FFFFFF0
07FFFFE0
03FFFFC0
01FFFF80
00FFFF00
007FFE00
ENDCHAR
STARTCHAR U+006B
ENCODING 107
SWIDTH 960 0
DWIDTH 32 0
BBX 32 32 0 -4
BITMAP
00000000
00000000
00000000
00000000
00000000
00000000
00000000
00000000
0FC003F0
0FC007E0
0FC00FC0
0FC01F80
0FC03F00
0FC07E00
0FFFFC00
0FFFFC00
0FFFFC00
0FFFFC00
0FFFFC00
0FFFFC00
0FC07E00
0FC03F00
0FC01F80
0FC00FC0
0FC007E0
0FC003F0
0FC003F0
07C003E0
03C003C0
01C00380
00C00300
00400200
ENDCHAR
STARTCHAR U+006C
ENCODING 108
SWIDTH 960 0
DWIDTH 32 0
BBX 32 32 0 -4
BITMAP
00000000
00000000
00000000
00000000
00000000
00000000
00000000
00000000
0FC00000
0FC00000
0FC00000
0FC00000
0FC00000
0FC00000
0FC00000
0FC00000
0FC00000
0FC00000
0FC00000
0FC00000
0FC00010
0FC00030
0FC00070
0FC000F0
0FC001F0
0FC003F0
0FFFFFF0
0FBFFFE0
0F3FFFC0
0E3FFF80
0C3FFF00
083FFE00
ENDCHAR
STARTCHAR U+006D
ENCODING 109
SWIDTH 960 0
DWIDTH 32 0
BBX 32 32 0 -4
BITMAP
00000000
00000000
00000000
00000000
00000000
00000000
00000000
00000000
0FFFFE00
07FFFF00
03FFFF80
01FFFFC0
00FFFFE0
007FFFF0
0FFFFFF0
0FFEFBF0
0FFCF3F0
0FF8E3F0
0FF0C3F0
0FE083F0
0FC003F0
0FC003F0
0FC003F0
0FC003F0
0FC003F0
0FC003F0
0FC003F0
0F8003E0
0F0003C0
0E000380
0C000300
08000200
ENDCHAR
STARTCHAR U+006E
ENCODING 110
SWIDTH 960 0
DWIDTH 32 0
BBX 32 32 0 -4
BITMAP
00000000
00000000
00000000
00000000
00000000
00000000
00000000
00000000
0FFFFE00
07FFFF00
03FFFF80
01FFFFC0
00FFFFE0
007FFFF0
0FC003F0
0FC003F0
0FC003F0
0FC003F0
0FC003F0
0FC003F0
0FC003F0
0FC003F0
0FC003F0
0FC003F0
0FC003F0
0FC003F0
0FC003F0
0F8003E0
0F0003C0
0E000380
0C000300
08000200
ENDCHAR
STARTCHAR U+006F
ENCODING 111
SWIDTH 960 0
DWIDTH 32 0
BBX 32 32 0 -4
BITMAP
00000000
00000000
00000000
00000000
00000000
00000000
00000000
00000000
0FFFFC00
07FFFE00
03FFFF00
01FFFF80
00FFFFC0
007FFFE0
0FC003F0
0FC003F0
0FC003F0
0FC003F0
0FC003F0
0FC003F0
0FC003F0
0FC003F0
0FC003F0
0FC003F0
0FC003F0
0FC003F0
0FFFFFF0
07FFFFE0
03FFFFC0
01FFFF80
00FFFF00
007FFE00
ENDCHAR
STARTCHAR U+0070
ENCODING 112
SWIDTH 960 0
DWIDTH 32 0
BBX 32 32 0 -4
BITMAP
00000000
00000000
00000000
00000000
00000000
00000000
00000000
00000000
0FFFFE00
07FFFF00
03FFFF80
01FFFFC0
00FFFFE0
007FFFF0
0FC003F0
0FC003E0
0FC003C0
0FC00380
0FC00300
0FC00200
0FFFFC00
0FDFF800
0FCFF000
0FC7E000
0FC3C000
0FC18000
0FC00000
07C00000
03C00000
01C00000
00C00000
00400000
ENDCHAR
STARTCHAR U+0071
ENCODING 113
SWIDTH 960 0
DWIDTH 32 0
BBX 32 32 0 -4
BITMAP
00000000
00000000
00000000
00000000
00000000
00000000
00000000
00000000
007FFE00
00FFFF00
01FFFF80
03FFFFC0
07FFFFE0
0FFFFFF0
0FC003F0
0FC003F0
0FC003F0
0FC003F0
0FC003F0
0FC003F0
0FC083F0
0FC0C3F0
0FC0E3F0
0FC0F3F0
0FC0FBF0
0FC0FFF0
0FFFFFF0
07FFFFE0
03FFFFC0
01FFFF80
00FFFF00
007FFE00
ENDCHAR
STARTCHAR U+0072
ENCODING 114
SWIDTH 960 0
DWIDTH 32 0
BBX 32 32 0 -4
BITMAP
00000000
00000000
00000000
00000000
00000000
00000000
00000000
00000000
0FFFFE00
07FFFF00
03FFFF80
01FFFFC0
00FFFFE0
007FFFF0
0FC003F0
0FC003E0
0FC003C0
0FC00380
0FC00300
0FC00200
0FC1FE00
0FC3FF00
0FC7FF80
0FCFFFC0
0FDFFFE0
0FFFFFF0
0FC003F0
07C003F0
03C003F0
01C003F0
00C003F0
004003F0
ENDCHAR
STARTCHAR U+0073
ENCODING 115
SWIDTH 960 0
DWIDTH 32 0
BBX 32 32 0 -4
BITMAP
00000000
00000000
00000000
00000000
00000000
00000000
00000000
00000000
007FFFF0
00FFFFE0
01FFFFC0
03FFFF80
07FFFF00
0FFFFE00
0FE00000
07F00000
03F80000
01FC0000
00FE0000
007F0000
0001FC00
0000FE00
00007F00
00003F80
00001FC0
00000FE0
0FFFFFE0
07FFFFC0
03FFFF80
01FFFF00
00FFFE00
007FFC00
ENDCHAR
STARTCHAR U+0074
ENCODING 116
SWIDTH 960 0
DWIDTH 32 0
BBX 32 32 0 -4
BITMAP
00000000
00000000
00000000
00000000
00000000
00000000
00000000
00000000
007FFFF0
00FFFFF0
01FFFFF0
03FFFFF0
07FFFFF0
0FFFFFF0
0000FC00
0000FC00
0000FC00
0000FC00
0000FC00
0000FC00
0000FC00
0000FC00
0000FC00
0000FC00
0000FC00
0000FC00
0000FC00
0000FC00
0000FC00
0000FC00
0000FC00
0000FC00
ENDCHAR
STARTCHAR U+0075
ENCODING 117
SWIDTH 960 0
DWIDTH 32 0
BBX 32 32 0 -4
BITMAP
00000000
00000000
00000000
00000000
00000000
00000000
00000000
00000000
0FC003F0
0FC003F0
0FC003F0
0FC003F0
0FC003F0
0FC003F0
0FC003F0
0FC003F0
0FC003F0
0FC003F0
0FC003F0
0FC003F0
0FC003F0
0FC003F0
0FC003F0
0FC003F0
0FC003F0
0FC003F0
0FFFFFF0
07FFFFE0
03FFFFC0
01FFFF80
00FFFF00
007FFE00
ENDCHAR
STARTCHAR U+0076
ENCODING 118
SWIDTH 960 0
DWIDTH 32 0
BBX 32 32 0 -4
BITMAP
00000000
00000000
00000000
00000000
00000000
00000000
00000000
00000000
0FC003F0
0FC003F0
0FC003F0
0FC003F0
0FC003F0
0FC003F0
0FC003F0
0FC003F0
0FC003F0
0FC003F0
0FC003F0
0FC003F0
0FE007F0
07F00FE0
03F81FC0
01FC3F80
00FE7F00
007FFE00
003FFC00
001FF800
000FF000
0007E000
0003C000
00018000
ENDCHAR
STARTCHAR U+0077
ENCODING 119
SWIDTH 960 0
DWIDTH 32 0
BBX 32 32 0 -4
BITMAP
00000000
00000000
00000000
00000000
00000000
00000000
00000000
00000000
00400010
00C00030
01C00070
03C000F0
07C001F0
0FC003F0
0FC003F0
0FC003F0
0FC003F0
0FC003F0
0FC003F0
0FC003F0
0FC003F0
0FC107F0
0FC30FF0
0FC71FF0
0FCF3FF0
0FDF7FF0
0FFFFFF0
07FFFFE0
03FFFFC0
01FFFF80
00FFFF00
007FFE00
ENDCHAR
STARTCHAR U+0078
ENCODING 120
SWIDTH 960 0
DWIDTH 32 0
BBX 32 32 0 -4
BITMAP
00000000
00000000
00000000
00000000
00000000
00000000
00000000
00000000
0FC003F0
07E007E0
03F00FC0
01F81F80
00FC3F00
007E7E00
003FFC00
001FF800
000FF000
0007E000
0003C000
00018000
00018000
0003C000
0007E000
000FF000
001FF800
003FFC00
007E7E00
00FC3F00
01F81F80
03F00FC0
07E007E0
0FC003F0
ENDCHAR
STARTCHAR U+0079
ENCODING 121
SWIDTH 960 0
DWIDTH 32 0
BBX 32 32 0 -4
BITMAP
00000000
00000000
00000000
00000000
00000000
00000000
00000000
00000000
0FC003F0
0FC003F0
0FC003F0
0FC003F0
0FC003F0
0FC003F0
0FE007F0
07F00FE0
03F81FC0
01FC3F80
00FE7F00
007FFE00
003FFC00
003FF800
003FF000
003FE000
003FC000
003F8000
007F0000
00FE0000
01FC0000
03F80000
07F00000
0FE00000
ENDCHAR
STARTCHAR U+007A
ENCODING 122
SWIDTH 960 0
DWIDTH 32 0
BBX 32 32 0 -4
BITMAP
00000000
00000000
00000000
00000000
00000000
00000000
00000000
00000000
0FFFFFF0
07FFFFE0
03FFFFC0
01FFFF80
00FFFF00
007FFE00
0001FC00
0003F800
0007F000
000FE000
001FC000
003F8000
007F0000
00FE0000
01FC0000
03F80000
07F00000
0FE00000
0FFFFE00
0FFFFF00
0FFFFF80
0FFFFFC0
0FFFFFE0
0FFFFFF0
ENDCHAR
STARTCHAR U+007B
ENCODING 123
SWIDTH 960 0
DWIDTH 32 0
BBX 32 32 0 -4
BITMAP
00FFFF00
00FFFE00
00FFFC00
00FFF800
00FFF000
00FFE000
00FFC000
00FF8000
01FF0000
03FF0000
07FF0000
0FFF0000
1FFF0000
3FFF0000
7FFF0000
FFFF0000
FFFF0000
7FFF0000
3FFF0000
1FFF0000
0FFF0000
07FF0000
03FF0000
01FF0000
00FF8000
00FFC000
00FFE000
00FFF000
00FFF800
00FFFC00
00FFFE00
00FFFF00
ENDCHAR
STARTCHAR U+007C
ENCODING 124
SWIDTH 960 0
DWIDTH 32 0
BBX 32 32 0 -4
BITMAP
00800000
00C00000
00E00000
00F00000
00F80000
00FC0000
00FE0000
00FF0000
00FF0000
00FF0000
00FF0000
00FF0000
00FF0000
00FF0000
00FF0000
00FF0000
00800000
00C00000
00E00000
00F00000
00F80000
00FC0000
00FE0000
00FF0000
00FF0000
00FF0000
00FF0000
00FF0000
00FF0000
00FF0000
00FF0000
00FF0000
ENDCHAR
STARTCHAR U+007D
ENCODING 125
SWIDTH 960 0
DWIDTH 32 0
BBX 32 32 0 -4
BITMAP
FFFF0000
7FFF0000
3FFF0000
1FFF0000
0FFF0000
07FF0000
03FF0000
01FF0000
00FF8000
00FFC000
00FFE000
00FFF000
00FFF800
00FFFC00
00FFFE00
00FFFF00
00FFFF00
00FFFE00
00FFFC00
00FFF800
00FFF000
00FFE000
00FFC000
00FF8000
01FF0000
03FF0000
07FF0000
0FFF0000
1FFF0000
3FFF0000
7FFF0000
FFFF0000
ENDCHAR
STARTCHAR U+007E
ENCODING 126
SWIDTH 960 0
DWIDTH 32 0
BBX 32 32 0 -4
BITMAP
000100FF
000300FE
000700FC
000F00F8
001F00F0
003F00E0
007F00C0
00FF0080
FF00FF00
FE00FE00
FC00FC00
F800F800
F000F000
E000E000
C000C000
80008000
00000000
00000000
00000000
00000000
00000000
00000000
00000000
00000000
00000000
00000000
00000000
00000000
00000000
00000000
00000000
00000000
ENDCHAR
ENDFONT
