STARTFONT 2.1
FONT -artwiz-kates-medium-r-normal--14-140-75-75-m-70-ISO8859-1
SIZE 14 75 75
FONTBOUNDINGBOX 7 15 0 -1
STARTPROPERTIES 24
POINT_SIZE 140
RESOLUTION_X 75
RESOLUTION_Y 75
WEIGHT 14
RESOLUTION 99
X_HEIGHT 14
QUAD_WIDTH 5
FONT_ASCENT 14
FONT_DESCENT 0
FOUNDRY "artwiz"
FAMILY_NAME "kates"
WEIGHT_NAME "medium"
SLANT "r"
SETWIDTH_NAME "normal"
ADD_STYLE_NAME ""
PIXEL_SIZE 14
SPACING "m"
AVERAGE_WIDTH 70
CHARSET_REGISTRY "ISO8859"
CHARSET_ENCODING "1"
COPYRIGHT "artwiz, fixed by aleczapka, latin1 chars by Sergio Martins"
_XMBDFED_INFO "Edited with xmbdfed 4.7."
DEFAULT_CHAR 63
_GBDFED_INFO "Edited with gbdfed 1.1."
ENDPROPERTIES
CHARS 210
STARTCHAR char0
ENCODING 0
SWIDTH 480 0
DWIDTH 7 0
BBX 5 12 1 1
BITMAP
F8
F8
F8
F8
F8
F8
F8
F8
F8
F8
F8
F8
ENDCHAR
STARTCHAR char1
ENCODING 1
SWIDTH 480 0
DWIDTH 7 0
BBX 5 5 1 3
BITMAP
20
70
F8
70
20
ENDCHAR
STARTCHAR char2
ENCODING 2
SWIDTH 480 0
DWIDTH 7 0
BBX 5 12 1 1
BITMAP
A8
50
A8
50
A8
50
A8
50
A8
50
A8
50
ENDCHAR
STARTCHAR char9
ENCODING 9
SWIDTH 480 0
DWIDTH 7 0
BBX 0 0 0 0
BITMAP
ENDCHAR
STARTCHAR char10
ENCODING 10
SWIDTH 480 0
DWIDTH 7 0
BBX 0 0 0 0
BITMAP
ENDCHAR
STARTCHAR char11
ENCODING 11
SWIDTH 480 0
DWIDTH 7 0
BBX 4 9 0 5
BITMAP
10
10
10
10
10
10
10
10
F0
ENDCHAR
STARTCHAR char11
ENCODING 12
SWIDTH 480 0
DWIDTH 7 0
BBX 4 7 0 -1
BITMAP
F0
10
10
10
10
10
10
ENDCHAR
STARTCHAR char11
ENCODING 13
SWIDTH 480 0
DWIDTH 7 0
BBX 4 7 3 -1
BITMAP
F0
80
80
80
80
80
80
ENDCHAR
STARTCHAR char11
ENCODING 14
SWIDTH 480 0
DWIDTH 7 0
BBX 4 9 3 5
BITMAP
80
80
80
80
80
80
80
80
F0
ENDCHAR
STARTCHAR char15
ENCODING 15
SWIDTH 480 0
DWIDTH 7 0
BBX 7 15 0 -1
BITMAP
10
10
10
10
10
10
10
10
FE
10
10
10
10
10
10
ENDCHAR
STARTCHAR char16
ENCODING 16
SWIDTH 480 0
DWIDTH 7 0
BBX 7 1 0 10
BITMAP
FE
ENDCHAR
STARTCHAR char17
ENCODING 17
SWIDTH 480 0
DWIDTH 7 0
BBX 7 1 0 8
BITMAP
FE
ENDCHAR
STARTCHAR char18
ENCODING 18
SWIDTH 480 0
DWIDTH 7 0
BBX 7 1 0 5
BITMAP
FE
ENDCHAR
STARTCHAR char19
ENCODING 19
SWIDTH 480 0
DWIDTH 7 0
BBX 7 1 0 3
BITMAP
FE
ENDCHAR
STARTCHAR char20
ENCODING 20
SWIDTH 480 0
DWIDTH 7 0
BBX 7 1 0 0
BITMAP
FE
ENDCHAR
STARTCHAR char21
ENCODING 21
SWIDTH 480 0
DWIDTH 7 0
BBX 4 15 3 -1
BITMAP
80
80
80
80
80
80
80
80
F0
80
80
80
80
80
80
ENDCHAR
STARTCHAR char22
ENCODING 22
SWIDTH 480 0
DWIDTH 7 0
BBX 4 15 0 -1
BITMAP
10
10
10
10
10
10
10
10
F0
10
10
10
10
10
10
ENDCHAR
STARTCHAR char23
ENCODING 23
SWIDTH 480 0
DWIDTH 7 0
BBX 7 9 0 5
BITMAP
10
10
10
10
10
10
10
10
FE
ENDCHAR
STARTCHAR char24
ENCODING 24
SWIDTH 480 0
DWIDTH 7 0
BBX 7 6 0 0
BITMAP
FE
10
10
10
10
10
ENDCHAR
STARTCHAR char25
ENCODING 25
SWIDTH 480 0
DWIDTH 7 0
BBX 1 15 3 -1
BITMAP
80
80
80
80
80
80
80
80
80
80
80
80
80
80
80
ENDCHAR
STARTCHAR char27
ENCODING 27
SWIDTH 480 0
DWIDTH 7 0
BBX 0 0 0 0
BITMAP
ENDCHAR
STARTCHAR char32
ENCODING 32
SWIDTH 480 0
DWIDTH 7 0
BBX 0 0 0 0
BITMAP
ENDCHAR
STARTCHAR char33
ENCODING 33
SWIDTH 480 0
DWIDTH 7 0
BBX 1 9 3 2
BITMAP
80
80
80
80
80
80
00
80
80
ENDCHAR
STARTCHAR char34
ENCODING 34
SWIDTH 480 0
DWIDTH 7 0
BBX 4 3 1 8
BITMAP
90
90
90
ENDCHAR
STARTCHAR char35
ENCODING 35
SWIDTH 480 0
DWIDTH 7 0
BBX 7 10 0 1
BITMAP
28
28
28
FE
28
28
FE
28
28
28
ENDCHAR
STARTCHAR char36
ENCODING 36
SWIDTH 480 0
DWIDTH 7 0
BBX 7 11 0 0
BITMAP
10
10
7C
92
90
7C
12
92
7C
10
10
ENDCHAR
STARTCHAR char37
ENCODING 37
SWIDTH 480 0
DWIDTH 7 0
BBX 5 8 1 2
BITMAP
C8
88
10
20
20
40
88
98
ENDCHAR
STARTCHAR char38
ENCODING 38
SWIDTH 480 0
DWIDTH 7 0
BBX 6 8 0 2
BITMAP
60
90
90
60
A0
94
8C
78
ENDCHAR
STARTCHAR char39
ENCODING 39
SWIDTH 480 0
DWIDTH 7 0
BBX 2 3 1 8
BITMAP
40
40
80
ENDCHAR
STARTCHAR char40
ENCODING 40
SWIDTH 480 0
DWIDTH 7 0
BBX 3 10 1 1
BITMAP
20
40
80
80
80
80
80
80
40
20
ENDCHAR
STARTCHAR char41
ENCODING 41
SWIDTH 480 0
DWIDTH 7 0
BBX 3 10 3 1
BITMAP
80
40
20
20
20
20
20
20
40
80
ENDCHAR
STARTCHAR char42
ENCODING 42
SWIDTH 480 0
DWIDTH 7 0
BBX 5 7 1 2
BITMAP
20
A8
D8
20
D8
A8
20
ENDCHAR
STARTCHAR char43
ENCODING 43
SWIDTH 480 0
DWIDTH 7 0
BBX 5 7 1 2
BITMAP
20
20
20
F8
20
20
20
ENDCHAR
STARTCHAR char44
ENCODING 44
SWIDTH 480 0
DWIDTH 7 0
BBX 3 3 1 1
BITMAP
60
40
80
ENDCHAR
STARTCHAR char45
ENCODING 45
SWIDTH 480 0
DWIDTH 7 0
BBX 5 1 0 5
BITMAP
F8
ENDCHAR
STARTCHAR char46
ENCODING 46
SWIDTH 480 0
DWIDTH 7 0
BBX 1 2 2 2
BITMAP
80
80
ENDCHAR
STARTCHAR char47
ENCODING 47
SWIDTH 480 0
DWIDTH 7 0
BBX 5 10 1 2
BITMAP
08
08
10
10
20
20
40
40
80
80
ENDCHAR
STARTCHAR char48
ENCODING 48
SWIDTH 480 0
DWIDTH 7 0
BBX 5 9 1 2
BITMAP
70
88
88
88
00
88
88
88
70
ENDCHAR
STARTCHAR char49
ENCODING 49
SWIDTH 480 0
DWIDTH 7 0
BBX 1 9 4 2
BITMAP
80
80
80
80
00
80
80
80
80
ENDCHAR
STARTCHAR char50
ENCODING 50
SWIDTH 480 0
DWIDTH 7 0
BBX 5 9 1 2
BITMAP
70
08
08
08
70
80
80
80
70
ENDCHAR
STARTCHAR char51
ENCODING 51
SWIDTH 480 0
DWIDTH 7 0
BBX 4 9 1 2
BITMAP
E0
10
10
10
E0
10
10
10
E0
ENDCHAR
STARTCHAR char52
ENCODING 52
SWIDTH 480 0
DWIDTH 7 0
BBX 5 9 1 2
BITMAP
88
88
88
88
70
08
08
08
08
ENDCHAR
STARTCHAR char53
ENCODING 53
SWIDTH 480 0
DWIDTH 7 0
BBX 5 9 1 2
BITMAP
70
80
80
80
70
08
08
08
70
ENDCHAR
STARTCHAR char54
ENCODING 54
SWIDTH 480 0
DWIDTH 7 0
BBX 5 9 1 2
BITMAP
70
80
80
80
70
88
88
88
70
ENDCHAR
STARTCHAR char55
ENCODING 55
SWIDTH 480 0
DWIDTH 7 0
BBX 4 9 2 2
BITMAP
E0
10
10
10
00
10
10
10
10
ENDCHAR
STARTCHAR char56
ENCODING 56
SWIDTH 480 0
DWIDTH 7 0
BBX 5 9 1 2
BITMAP
70
88
88
88
70
88
88
88
70
ENDCHAR
STARTCHAR char57
ENCODING 57
SWIDTH 480 0
DWIDTH 7 0
BBX 5 9 1 2
BITMAP
70
88
88
88
70
08
08
08
08
ENDCHAR
STARTCHAR char58
ENCODING 58
SWIDTH 480 0
DWIDTH 7 0
BBX 1 6 3 2
BITMAP
80
80
00
00
80
80
ENDCHAR
STARTCHAR char59
ENCODING 59
SWIDTH 480 0
DWIDTH 7 0
BBX 2 7 2 1
BITMAP
40
40
00
00
40
40
80
ENDCHAR
STARTCHAR char60
ENCODING 60
SWIDTH 480 0
DWIDTH 7 0
BBX 5 9 1 1
BITMAP
08
10
20
40
80
40
20
10
08
ENDCHAR
STARTCHAR char61
ENCODING 61
SWIDTH 480 0
DWIDTH 7 0
BBX 5 3 1 4
BITMAP
F8
00
F8
ENDCHAR
STARTCHAR char62
ENCODING 62
SWIDTH 480 0
DWIDTH 7 0
BBX 5 9 1 1
BITMAP
80
40
20
10
08
10
20
40
80
ENDCHAR
STARTCHAR char63
ENCODING 63
SWIDTH 480 0
DWIDTH 7 0
BBX 5 8 1 2
BITMAP
F0
08
08
08
70
40
00
40
ENDCHAR
STARTCHAR char64
ENCODING 64
SWIDTH 480 0
DWIDTH 7 0
BBX 5 8 1 2
BITMAP
70
88
98
A8
A8
B0
80
78
ENDCHAR
STARTCHAR char65
ENCODING 65
SWIDTH 480 0
DWIDTH 7 0
BBX 6 10 0 2
BITMAP
C0
20
10
08
84
84
84
FC
84
84
ENDCHAR
STARTCHAR char66
ENCODING 66
SWIDTH 480 0
DWIDTH 7 0
BBX 6 10 0 2
BITMAP
F0
08
08
F8
84
84
84
84
84
F8
ENDCHAR
STARTCHAR char67
ENCODING 67
SWIDTH 480 0
DWIDTH 7 0
BBX 6 10 0 2
BITMAP
3C
40
80
80
80
80
80
80
80
7C
ENDCHAR
STARTCHAR char68
ENCODING 68
SWIDTH 480 0
DWIDTH 7 0
BBX 6 10 0 2
BITMAP
C0
20
10
88
84
84
84
84
88
F0
ENDCHAR
STARTCHAR char69
ENCODING 69
SWIDTH 480 0
DWIDTH 7 0
BBX 6 10 0 2
BITMAP
FC
00
00
80
80
F0
80
80
80
FC
ENDCHAR
STARTCHAR char70
ENCODING 70
SWIDTH 480 0
DWIDTH 7 0
BBX 6 10 0 2
BITMAP
FC
00
00
80
80
F0
80
80
80
80
ENDCHAR
STARTCHAR char71
ENCODING 71
SWIDTH 480 0
DWIDTH 7 0
BBX 6 10 0 2
BITMAP
78
84
80
80
80
80
9C
84
84
78
ENDCHAR
STARTCHAR char72
ENCODING 72
SWIDTH 480 0
DWIDTH 7 0
BBX 6 10 0 2
BITMAP
84
84
84
04
04
FC
84
84
84
84
ENDCHAR
STARTCHAR char73
ENCODING 73
SWIDTH 480 0
DWIDTH 7 0
BBX 5 10 0 2
BITMAP
F8
00
00
20
20
20
20
20
20
F8
ENDCHAR
STARTCHAR char74
ENCODING 74
SWIDTH 480 0
DWIDTH 7 0
BBX 5 10 0 2
BITMAP
F8
00
00
08
08
08
08
10
20
C0
ENDCHAR
STARTCHAR char75
ENCODING 75
SWIDTH 480 0
DWIDTH 7 0
BBX 6 10 0 2
BITMAP
80
88
90
A0
40
A0
90
88
84
84
ENDCHAR
STARTCHAR char76
ENCODING 76
SWIDTH 480 0
DWIDTH 7 0
BBX 6 10 0 2
BITMAP
80
80
80
80
80
80
80
80
80
FC
ENDCHAR
STARTCHAR char77
ENCODING 77
SWIDTH 480 0
DWIDTH 7 0
BBX 6 10 0 2
BITMAP
84
CC
7C
34
B4
94
84
84
84
84
ENDCHAR
STARTCHAR char78
ENCODING 78
SWIDTH 480 0
DWIDTH 7 0
BBX 6 10 0 2
BITMAP
84
C4
44
24
A4
94
94
8C
8C
84
ENDCHAR
STARTCHAR char79
ENCODING 79
SWIDTH 480 0
DWIDTH 7 0
BBX 6 10 0 2
BITMAP
78
04
04
84
84
84
84
84
84
78
ENDCHAR
STARTCHAR char80
ENCODING 80
SWIDTH 480 0
DWIDTH 7 0
BBX 6 10 0 2
BITMAP
F8
04
04
04
F8
80
80
80
80
80
ENDCHAR
STARTCHAR char81
ENCODING 81
SWIDTH 480 0
DWIDTH 7 0
BBX 6 11 0 1
BITMAP
78
04
04
84
84
84
84
A4
94
78
04
ENDCHAR
STARTCHAR char82
ENCODING 82
SWIDTH 480 0
DWIDTH 7 0
BBX 6 10 0 2
BITMAP
F0
08
08
08
F8
84
84
84
84
84
ENDCHAR
STARTCHAR char83
ENCODING 83
SWIDTH 480 0
DWIDTH 7 0
BBX 6 10 0 2
BITMAP
78
84
84
80
70
08
04
84
84
78
ENDCHAR
STARTCHAR char84
ENCODING 84
SWIDTH 480 0
DWIDTH 7 0
BBX 6 10 0 2
BITMAP
FC
00
00
10
10
10
10
10
10
10
ENDCHAR
STARTCHAR char85
ENCODING 85
SWIDTH 480 0
DWIDTH 7 0
BBX 6 10 0 2
BITMAP
84
84
04
04
84
84
84
84
84
78
ENDCHAR
STARTCHAR char86
ENCODING 86
SWIDTH 480 0
DWIDTH 7 0
BBX 6 10 0 2
BITMAP
84
84
04
04
84
88
90
A0
C0
80
ENDCHAR
STARTCHAR char87
ENCODING 87
SWIDTH 480 0
DWIDTH 7 0
BBX 6 10 0 2
BITMAP
84
84
04
04
84
84
A4
C4
9C
84
ENDCHAR
STARTCHAR char88
ENCODING 88
SWIDTH 480 0
DWIDTH 7 0
BBX 6 10 0 2
BITMAP
84
84
84
48
30
30
48
84
84
84
ENDCHAR
STARTCHAR char89
ENCODING 89
SWIDTH 480 0
DWIDTH 7 0
BBX 6 10 0 2
BITMAP
84
84
84
44
28
18
08
08
08
08
ENDCHAR
STARTCHAR char90
ENCODING 90
SWIDTH 480 0
DWIDTH 7 0
BBX 6 10 0 2
BITMAP
FC
00
00
04
08
10
20
40
80
FC
ENDCHAR
STARTCHAR char91
ENCODING 91
SWIDTH 480 0
DWIDTH 7 0
BBX 4 9 1 2
BITMAP
F0
80
80
80
80
80
80
80
F0
ENDCHAR
STARTCHAR char92
ENCODING 92
SWIDTH 480 0
DWIDTH 7 0
BBX 5 10 1 2
BITMAP
80
80
40
40
20
20
10
10
08
08
ENDCHAR
STARTCHAR char93
ENCODING 93
SWIDTH 480 0
DWIDTH 7 0
BBX 4 9 2 2
BITMAP
F0
10
10
10
10
10
10
10
F0
ENDCHAR
STARTCHAR char94
ENCODING 94
SWIDTH 480 0
DWIDTH 7 0
BBX 5 3 1 7
BITMAP
20
50
88
ENDCHAR
STARTCHAR char95
ENCODING 95
SWIDTH 480 0
DWIDTH 7 0
BBX 6 1 0 2
BITMAP
FC
ENDCHAR
STARTCHAR char96
ENCODING 96
SWIDTH 480 0
DWIDTH 7 0
BBX 2 3 1 7
BITMAP
80
80
40
ENDCHAR
STARTCHAR char97
ENCODING 97
SWIDTH 480 0
DWIDTH 7 0
BBX 6 6 0 2
BITMAP
38
04
84
84
88
74
ENDCHAR
STARTCHAR char98
ENCODING 98
SWIDTH 480 0
DWIDTH 7 0
BBX 6 10 0 2
BITMAP
80
80
80
80
78
04
84
84
84
78
ENDCHAR
STARTCHAR char99
ENCODING 99
SWIDTH 480 0
DWIDTH 7 0
BBX 5 6 0 2
BITMAP
78
80
80
80
80
78
ENDCHAR
STARTCHAR char100
ENCODING 100
SWIDTH 480 0
DWIDTH 7 0
BBX 6 10 0 2
BITMAP
04
04
04
04
78
80
84
84
84
7C
ENDCHAR
STARTCHAR char101
ENCODING 101
SWIDTH 480 0
DWIDTH 7 0
BBX 6 6 0 2
BITMAP
78
84
D4
A8
80
7C
ENDCHAR
STARTCHAR char102
ENCODING 102
SWIDTH 480 0
DWIDTH 7 0
BBX 6 10 0 2
BITMAP
1C
20
20
20
F8
20
20
20
20
20
ENDCHAR
STARTCHAR char103
ENCODING 103
SWIDTH 480 0
DWIDTH 7 0
BBX 6 8 0 0
BITMAP
78
84
84
84
7C
04
04
F8
ENDCHAR
STARTCHAR char104
ENCODING 104
SWIDTH 480 0
DWIDTH 7 0
BBX 6 10 0 2
BITMAP
80
80
80
00
78
84
84
84
84
84
ENDCHAR
STARTCHAR char105
ENCODING 105
SWIDTH 480 0
DWIDTH 7 0
BBX 2 10 2 2
BITMAP
40
40
00
00
C0
40
40
40
40
40
ENDCHAR
STARTCHAR char106
ENCODING 106
SWIDTH 480 0
DWIDTH 7 0
BBX 5 12 0 0
BITMAP
08
08
00
00
18
08
08
08
08
08
18
F0
ENDCHAR
STARTCHAR char107
ENCODING 107
SWIDTH 480 0
DWIDTH 7 0
BBX 6 9 0 2
BITMAP
80
80
90
20
40
A0
90
88
8C
ENDCHAR
STARTCHAR char108
ENCODING 108
SWIDTH 480 0
DWIDTH 7 0
BBX 4 9 1 2
BITMAP
C0
40
40
40
00
40
40
40
F0
ENDCHAR
STARTCHAR char109
ENCODING 109
SWIDTH 480 0
DWIDTH 7 0
BBX 6 6 0 2
BITMAP
F0
28
94
A4
94
A4
ENDCHAR
STARTCHAR char110
ENCODING 110
SWIDTH 480 0
DWIDTH 7 0
BBX 6 6 0 2
BITMAP
78
04
84
84
84
84
ENDCHAR
STARTCHAR char111
ENCODING 111
SWIDTH 480 0
DWIDTH 7 0
BBX 6 6 0 2
BITMAP
78
04
84
84
84
78
ENDCHAR
STARTCHAR char112
ENCODING 112
SWIDTH 480 0
DWIDTH 7 0
BBX 6 8 0 0
BITMAP
F8
04
04
04
F8
80
80
80
ENDCHAR
STARTCHAR char113
ENCODING 113
SWIDTH 480 0
DWIDTH 7 0
BBX 6 8 0 0
BITMAP
7C
80
80
80
7C
04
04
04
ENDCHAR
STARTCHAR char114
ENCODING 114
SWIDTH 480 0
DWIDTH 7 0
BBX 6 6 0 2
BITMAP
3C
40
80
80
80
80
ENDCHAR
STARTCHAR char115
ENCODING 115
SWIDTH 480 0
DWIDTH 7 0
BBX 6 6 0 2
BITMAP
7C
80
78
04
04
F8
ENDCHAR
STARTCHAR char116
ENCODING 116
SWIDTH 480 0
DWIDTH 7 0
BBX 6 9 0 2
BITMAP
20
20
00
FC
20
20
20
24
18
ENDCHAR
STARTCHAR char117
ENCODING 117
SWIDTH 480 0
DWIDTH 7 0
BBX 6 6 0 2
BITMAP
84
84
84
84
84
78
ENDCHAR
STARTCHAR char118
ENCODING 118
SWIDTH 480 0
DWIDTH 7 0
BBX 6 6 0 2
BITMAP
84
88
90
A0
C0
80
ENDCHAR
STARTCHAR char119
ENCODING 119
SWIDTH 480 0
DWIDTH 7 0
BBX 6 6 0 2
BITMAP
84
84
94
B4
DC
94
ENDCHAR
STARTCHAR char120
ENCODING 120
SWIDTH 480 0
DWIDTH 7 0
BBX 6 6 0 2
BITMAP
84
84
28
D4
84
84
ENDCHAR
STARTCHAR char121
ENCODING 121
SWIDTH 480 0
DWIDTH 7 0
BBX 6 8 0 0
BITMAP
84
84
84
84
84
78
08
F0
ENDCHAR
STARTCHAR char122
ENCODING 122
SWIDTH 480 0
DWIDTH 7 0
BBX 6 6 0 2
BITMAP
FC
04
2C
50
80
FC
ENDCHAR
STARTCHAR char123
ENCODING 123
SWIDTH 480 0
DWIDTH 7 0
BBX 5 10 1 1
BITMAP
38
40
40
40
80
80
40
40
40
38
ENDCHAR
STARTCHAR char124
ENCODING 124
SWIDTH 480 0
DWIDTH 7 0
BBX 1 10 3 1
BITMAP
80
80
80
80
00
00
80
80
80
80
ENDCHAR
STARTCHAR char125
ENCODING 125
SWIDTH 480 0
DWIDTH 7 0
BBX 5 10 1 1
BITMAP
E0
10
10
10
08
08
10
10
10
E0
ENDCHAR
STARTCHAR char126
ENCODING 126
SWIDTH 480 0
DWIDTH 7 0
BBX 6 2 0 7
BITMAP
64
98
ENDCHAR
STARTCHAR char33
ENCODING 161
SWIDTH 480 0
DWIDTH 7 0
BBX 1 9 3 2
BITMAP
80
80
00
80
80
80
80
80
80
ENDCHAR
STARTCHAR char155
ENCODING 162
SWIDTH 480 0
DWIDTH 7 0
BBX 6 8 0 1
BITMAP
10
7C
90
90
90
90
7C
10
ENDCHAR
STARTCHAR char156
ENCODING 163
SWIDTH 480 0
DWIDTH 7 0
BBX 6 10 0 1
BITMAP
38
44
44
40
40
40
F8
40
40
BC
ENDCHAR
STARTCHAR char164
ENCODING 164
SWIDTH 480 0
DWIDTH 7 0
BBX 6 6 1 5
BITMAP
84
78
48
48
78
84
ENDCHAR
STARTCHAR char157
ENCODING 165
SWIDTH 480 0
DWIDTH 7 0
BBX 5 12 1 0
BITMAP
88
88
88
88
70
20
F8
20
F8
20
70
20
ENDCHAR
STARTCHAR char133
ENCODING 166
SWIDTH 480 0
DWIDTH 7 0
BBX 1 9 1 1
BITMAP
80
80
80
80
00
80
80
80
80
ENDCHAR
STARTCHAR char159
ENCODING 167
SWIDTH 480 0
DWIDTH 7 0
BBX 7 10 0 2
BITMAP
0C
12
10
38
44
44
38
10
90
60
ENDCHAR
STARTCHAR char168
ENCODING 168
SWIDTH 480 0
DWIDTH 7 0
BBX 4 2 2 10
BITMAP
90
90
ENDCHAR
STARTCHAR char99
ENCODING 169
SWIDTH 480 0
DWIDTH 7 0
BBX 6 9 0 2
BITMAP
70
84
14
A4
A4
A4
90
84
78
ENDCHAR
STARTCHAR char166
ENCODING 170
SWIDTH 480 0
DWIDTH 7 0
BBX 5 7 0 2
BITMAP
78
88
88
88
78
00
F8
ENDCHAR
STARTCHAR char174
ENCODING 171
SWIDTH 480 0
DWIDTH 7 0
BBX 6 5 0 3
BITMAP
24
48
90
48
24
ENDCHAR
STARTCHAR char170
ENCODING 172
SWIDTH 480 0
DWIDTH 7 0
BBX 5 4 1 2
BITMAP
F8
08
08
08
ENDCHAR
STARTCHAR char99
ENCODING 174
SWIDTH 480 0
DWIDTH 7 0
BBX 6 9 0 2
BITMAP
70
84
74
54
64
54
50
84
78
ENDCHAR
STARTCHAR char175
ENCODING 175
SWIDTH 480 0
DWIDTH 7 0
BBX 5 1 1 12
BITMAP
F8
ENDCHAR
STARTCHAR char167
ENCODING 176
SWIDTH 480 0
DWIDTH 7 0
BBX 5 5 1 4
BITMAP
70
88
88
88
70
ENDCHAR
STARTCHAR char241
ENCODING 177
SWIDTH 480 0
DWIDTH 7 0
BBX 5 6 1 4
BITMAP
20
20
F8
20
00
F8
ENDCHAR
STARTCHAR char178
ENCODING 178
SWIDTH 480 0
DWIDTH 7 0
BBX 3 5 1 7
BITMAP
E0
20
E0
80
E0
ENDCHAR
STARTCHAR char178
ENCODING 179
SWIDTH 480 0
DWIDTH 7 0
BBX 3 5 1 7
BITMAP
E0
20
60
20
E0
ENDCHAR
STARTCHAR char180
ENCODING 180
SWIDTH 480 0
DWIDTH 7 0
BBX 2 2 2 10
BITMAP
40
80
ENDCHAR
STARTCHAR char117
ENCODING 181
SWIDTH 480 0
DWIDTH 7 0
BBX 6 8 0 0
BITMAP
84
84
84
84
84
F8
80
80
ENDCHAR
STARTCHAR char113
ENCODING 182
SWIDTH 480 0
DWIDTH 7 0
BBX 6 8 0 0
BITMAP
7C
90
90
90
7C
14
14
14
ENDCHAR
STARTCHAR char183
ENCODING 183
SWIDTH 480 0
DWIDTH 7 0
BBX 2 2 2 6
BITMAP
C0
C0
ENDCHAR
STARTCHAR char184
ENCODING 184
SWIDTH 480 0
DWIDTH 7 0
BBX 3 3 2 1
BITMAP
40
20
E0
ENDCHAR
STARTCHAR char178
ENCODING 185
SWIDTH 480 0
DWIDTH 7 0
BBX 2 5 1 7
BITMAP
C0
40
40
40
40
ENDCHAR
STARTCHAR char167
ENCODING 186
SWIDTH 480 0
DWIDTH 7 0
BBX 5 7 1 2
BITMAP
70
88
88
88
70
00
F8
ENDCHAR
STARTCHAR char174
ENCODING 187
SWIDTH 480 0
DWIDTH 7 0
BBX 6 5 0 3
BITMAP
24
48
90
48
24
ENDCHAR
STARTCHAR char172
ENCODING 188
SWIDTH 480 0
DWIDTH 7 0
BBX 5 12 1 1
BITMAP
20
20
20
20
00
F8
00
50
50
70
10
10
ENDCHAR
STARTCHAR char171
ENCODING 189
SWIDTH 480 0
DWIDTH 7 0
BBX 5 12 1 1
BITMAP
20
20
20
20
00
F8
00
70
10
70
40
70
ENDCHAR
STARTCHAR char172
ENCODING 190
SWIDTH 480 0
DWIDTH 7 0
BBX 5 13 1 1
BITMAP
70
10
30
10
70
00
F8
00
50
50
70
10
10
ENDCHAR
STARTCHAR char168
ENCODING 191
SWIDTH 480 0
DWIDTH 7 0
BBX 4 9 1 2
BITMAP
20
00
20
20
40
80
80
80
70
ENDCHAR
STARTCHAR char196
ENCODING 192
SWIDTH 480 0
DWIDTH 7 0
BBX 6 12 0 2
BITMAP
20
10
C8
20
10
08
84
84
84
FC
84
84
ENDCHAR
STARTCHAR char196
ENCODING 193
SWIDTH 480 0
DWIDTH 7 0
BBX 7 12 0 2
BITMAP
02
04
C8
20
10
08
84
84
84
FC
84
84
ENDCHAR
STARTCHAR char196
ENCODING 194
SWIDTH 480 0
DWIDTH 7 0
BBX 7 12 0 2
BITMAP
08
14
C2
20
10
08
84
84
84
FC
84
84
ENDCHAR
STARTCHAR char196
ENCODING 195
SWIDTH 480 0
DWIDTH 7 0
BBX 7 12 0 2
BITMAP
0A
14
C0
20
10
08
84
84
84
FC
84
84
ENDCHAR
STARTCHAR char196
ENCODING 196
SWIDTH 480 0
DWIDTH 7 0
BBX 6 12 0 2
BITMAP
48
00
C0
20
10
08
84
84
84
FC
84
84
ENDCHAR
STARTCHAR char197
ENCODING 197
SWIDTH 480 0
DWIDTH 7 0
BBX 6 12 0 2
BITMAP
08
14
C8
20
10
08
84
84
84
FC
84
84
ENDCHAR
STARTCHAR char197
ENCODING 198
SWIDTH 480 0
DWIDTH 7 0
BBX 6 8 0 2
BITMAP
C0
2C
90
90
98
F0
90
9C
ENDCHAR
STARTCHAR char67
ENCODING 199
SWIDTH 480 0
DWIDTH 7 0
BBX 6 11 0 1
BITMAP
3C
40
80
80
80
80
80
80
90
6C
10
ENDCHAR
STARTCHAR char69
ENCODING 200
SWIDTH 480 0
DWIDTH 7 0
BBX 6 12 0 2
BITMAP
20
10
FC
00
00
80
80
F0
80
80
80
FC
ENDCHAR
STARTCHAR char69
ENCODING 201
SWIDTH 480 0
DWIDTH 7 0
BBX 6 12 0 2
BITMAP
10
20
FC
00
00
80
80
F0
80
80
80
FC
ENDCHAR
STARTCHAR char69
ENCODING 202
SWIDTH 480 0
DWIDTH 7 0
BBX 6 12 0 2
BITMAP
10
28
00
FC
00
00
80
F0
80
80
80
FC
ENDCHAR
STARTCHAR char69
ENCODING 203
SWIDTH 480 0
DWIDTH 7 0
BBX 6 12 0 2
BITMAP
28
00
FC
00
00
80
80
F0
80
80
80
FC
ENDCHAR
STARTCHAR char73
ENCODING 204
SWIDTH 480 0
DWIDTH 7 0
BBX 5 12 0 2
BITMAP
40
20
F8
00
00
20
20
20
20
20
20
F8
ENDCHAR
STARTCHAR char73
ENCODING 205
SWIDTH 480 0
DWIDTH 7 0
BBX 5 12 0 2
BITMAP
10
20
F8
00
00
20
20
20
20
20
20
F8
ENDCHAR
STARTCHAR char73
ENCODING 206
SWIDTH 480 0
DWIDTH 7 0
BBX 5 12 0 2
BITMAP
20
50
00
F8
00
00
20
20
20
20
20
F8
ENDCHAR
STARTCHAR char73
ENCODING 207
SWIDTH 480 0
DWIDTH 7 0
BBX 5 12 0 2
BITMAP
50
00
F8
00
00
20
20
20
20
20
20
F8
ENDCHAR
STARTCHAR char68
ENCODING 208
SWIDTH 480 0
DWIDTH 7 0
BBX 6 10 0 2
BITMAP
C0
20
10
88
84
84
C4
84
88
F0
ENDCHAR
STARTCHAR char78
ENCODING 209
SWIDTH 480 0
DWIDTH 7 0
BBX 6 12 0 2
BITMAP
14
28
80
C4
44
24
A4
94
94
8C
8C
84
ENDCHAR
STARTCHAR char214
ENCODING 210
SWIDTH 480 0
DWIDTH 7 0
BBX 6 12 0 2
BITMAP
40
20
78
04
04
84
84
84
84
84
84
78
ENDCHAR
STARTCHAR char214
ENCODING 211
SWIDTH 480 0
DWIDTH 7 0
BBX 6 12 0 2
BITMAP
08
10
78
04
04
84
84
84
84
84
84
78
ENDCHAR
STARTCHAR char214
ENCODING 212
SWIDTH 480 0
DWIDTH 7 0
BBX 6 12 0 2
BITMAP
20
50
00
78
04
04
84
84
84
84
84
78
ENDCHAR
STARTCHAR char214
ENCODING 213
SWIDTH 480 0
DWIDTH 7 0
BBX 6 12 0 2
BITMAP
28
50
00
78
04
04
84
84
84
84
84
78
ENDCHAR
STARTCHAR char214
ENCODING 214
SWIDTH 480 0
DWIDTH 7 0
BBX 6 11 0 2
BITMAP
50
00
78
04
04
84
84
84
84
84
78
ENDCHAR
STARTCHAR char230
ENCODING 215
SWIDTH 480 0
DWIDTH 7 0
BBX 3 3 2 5
BITMAP
A0
40
A0
ENDCHAR
STARTCHAR char237
ENCODING 216
SWIDTH 480 0
DWIDTH 7 0
BBX 6 10 0 0
BITMAP
04
04
78
94
A4
94
A4
78
80
80
ENDCHAR
STARTCHAR char85
ENCODING 217
SWIDTH 480 0
DWIDTH 7 0
BBX 6 12 0 2
BITMAP
20
10
84
84
04
04
84
84
84
84
84
78
ENDCHAR
STARTCHAR char85
ENCODING 218
SWIDTH 480 0
DWIDTH 7 0
BBX 6 12 0 2
BITMAP
10
20
84
84
04
04
84
84
84
84
84
78
ENDCHAR
STARTCHAR char85
ENCODING 219
SWIDTH 480 0
DWIDTH 7 0
BBX 6 12 0 2
BITMAP
10
28
80
84
04
04
84
84
84
84
84
78
ENDCHAR
STARTCHAR char85
ENCODING 220
SWIDTH 480 0
DWIDTH 7 0
BBX 6 12 0 2
BITMAP
28
28
80
84
04
04
84
84
84
84
84
78
ENDCHAR
STARTCHAR char89
ENCODING 221
SWIDTH 480 0
DWIDTH 7 0
BBX 6 12 0 2
BITMAP
10
20
84
84
84
44
28
18
08
08
08
08
ENDCHAR
STARTCHAR char112
ENCODING 222
SWIDTH 480 0
DWIDTH 7 0
BBX 6 10 0 0
BITMAP
80
80
80
F8
04
04
F8
80
80
80
ENDCHAR
STARTCHAR char225
ENCODING 223
SWIDTH 480 0
DWIDTH 7 0
BBX 5 9 0 1
BITMAP
70
88
90
A0
90
A0
80
80
80
ENDCHAR
STARTCHAR char97
ENCODING 224
SWIDTH 480 0
DWIDTH 7 0
BBX 6 10 0 2
BITMAP
20
10
08
00
38
04
84
84
88
74
ENDCHAR
STARTCHAR char97
ENCODING 225
SWIDTH 480 0
DWIDTH 7 0
BBX 6 10 0 2
BITMAP
04
08
10
00
38
04
84
84
88
74
ENDCHAR
STARTCHAR char97
ENCODING 226
SWIDTH 480 0
DWIDTH 7 0
BBX 6 10 0 2
BITMAP
10
28
04
00
38
04
84
84
88
74
ENDCHAR
STARTCHAR char97
ENCODING 227
SWIDTH 480 0
DWIDTH 7 0
BBX 6 9 0 2
BITMAP
14
28
00
38
04
84
84
88
74
ENDCHAR
STARTCHAR char97
ENCODING 228
SWIDTH 480 0
DWIDTH 7 0
BBX 6 9 0 2
BITMAP
28
00
00
38
04
84
84
88
74
ENDCHAR
STARTCHAR char97
ENCODING 229
SWIDTH 480 0
DWIDTH 7 0
BBX 6 10 0 2
BITMAP
10
28
10
00
38
04
84
84
88
74
ENDCHAR
STARTCHAR char224
ENCODING 230
SWIDTH 480 0
DWIDTH 7 0
BBX 6 6 0 2
BITMAP
58
A4
B4
A8
A0
7C
ENDCHAR
STARTCHAR char99
ENCODING 231
SWIDTH 480 0
DWIDTH 7 0
BBX 5 7 0 1
BITMAP
78
80
80
80
A0
58
20
ENDCHAR
STARTCHAR char101
ENCODING 232
SWIDTH 480 0
DWIDTH 7 0
BBX 6 9 0 2
BITMAP
20
10
00
78
84
D4
A8
80
7C
ENDCHAR
STARTCHAR char101
ENCODING 233
SWIDTH 480 0
DWIDTH 7 0
BBX 6 9 0 2
BITMAP
08
10
00
78
84
D4
A8
80
7C
ENDCHAR
STARTCHAR char101
ENCODING 234
SWIDTH 480 0
DWIDTH 7 0
BBX 6 9 0 2
BITMAP
10
28
00
78
84
D4
A8
80
7C
ENDCHAR
STARTCHAR char101
ENCODING 235
SWIDTH 480 0
DWIDTH 7 0
BBX 6 9 0 2
BITMAP
28
00
00
78
84
D4
A8
80
7C
ENDCHAR
STARTCHAR char105
ENCODING 236
SWIDTH 480 0
DWIDTH 7 0
BBX 2 10 2 2
BITMAP
80
40
00
00
C0
40
40
40
40
40
ENDCHAR
STARTCHAR char105
ENCODING 237
SWIDTH 480 0
DWIDTH 7 0
BBX 3 10 2 2
BITMAP
20
40
00
00
C0
40
40
40
40
40
ENDCHAR
STARTCHAR char105
ENCODING 238
SWIDTH 480 0
DWIDTH 7 0
BBX 3 10 2 2
BITMAP
40
A0
00
00
C0
40
40
40
40
40
ENDCHAR
STARTCHAR char105
ENCODING 239
SWIDTH 480 0
DWIDTH 7 0
BBX 3 9 2 2
BITMAP
A0
00
00
C0
40
40
40
40
40
ENDCHAR
STARTCHAR char240
ENCODING 240
SWIDTH 480 0
DWIDTH 7 0
BBX 6 9 0 2
BITMAP
48
48
70
84
7C
84
84
84
FC
ENDCHAR
STARTCHAR char110
ENCODING 241
SWIDTH 480 0
DWIDTH 7 0
BBX 6 9 0 2
BITMAP
28
50
00
78
04
84
84
84
84
ENDCHAR
STARTCHAR char111
ENCODING 242
SWIDTH 480 0
DWIDTH 7 0
BBX 6 9 0 2
BITMAP
20
10
00
78
04
84
84
84
78
ENDCHAR
STARTCHAR char111
ENCODING 243
SWIDTH 480 0
DWIDTH 7 0
BBX 6 9 0 2
BITMAP
08
10
00
78
04
84
84
84
78
ENDCHAR
STARTCHAR char111
ENCODING 244
SWIDTH 480 0
DWIDTH 7 0
BBX 6 9 0 2
BITMAP
10
28
00
78
04
84
84
84
78
ENDCHAR
STARTCHAR char111
ENCODING 245
SWIDTH 480 0
DWIDTH 7 0
BBX 6 9 0 2
BITMAP
14
28
00
78
04
84
84
84
78
ENDCHAR
STARTCHAR char246
ENCODING 246
SWIDTH 480 0
DWIDTH 7 0
BBX 6 8 0 2
BITMAP
48
00
78
04
84
84
84
78
ENDCHAR
STARTCHAR char247
ENCODING 247
SWIDTH 480 0
DWIDTH 7 0
BBX 5 5 1 5
BITMAP
20
00
D8
00
20
ENDCHAR
STARTCHAR char236
ENCODING 248
SWIDTH 480 0
DWIDTH 7 0
BBX 6 8 0 1
BITMAP
04
78
A4
94
A4
94
78
80
ENDCHAR
STARTCHAR char117
ENCODING 249
SWIDTH 480 0
DWIDTH 7 0
BBX 6 9 0 2
BITMAP
20
10
00
84
84
84
84
84
78
ENDCHAR
STARTCHAR char117
ENCODING 250
SWIDTH 480 0
DWIDTH 7 0
BBX 6 9 0 2
BITMAP
08
10
00
84
84
84
84
84
78
ENDCHAR
STARTCHAR char117
ENCODING 251
SWIDTH 480 0
DWIDTH 7 0
BBX 6 9 0 2
BITMAP
10
28
00
84
84
84
84
84
78
ENDCHAR
STARTCHAR char117
ENCODING 252
SWIDTH 480 0
DWIDTH 7 0
BBX 6 10 0 2
BITMAP
48
48
00
00
84
84
84
84
84
78
ENDCHAR
STARTCHAR char121
ENCODING 253
SWIDTH 480 0
DWIDTH 7 0
BBX 6 10 0 0
BITMAP
10
20
84
84
84
84
84
78
08
F0
ENDCHAR
STARTCHAR char112
ENCODING 254
SWIDTH 480 0
DWIDTH 7 0
BBX 6 11 0 0
BITMAP
80
80
80
F8
04
04
04
F8
80
80
80
ENDCHAR
STARTCHAR char121
ENCODING 255
SWIDTH 480 0
DWIDTH 7 0
BBX 6 10 0 0
BITMAP
28
00
84
84
84
84
84
78
08
F0
ENDCHAR
ENDFONT
